<?xml version="1.0" encoding="UTF-8"?>
<!DOCTYPE svg PUBLIC "-//W3C//DTD SVG 1.1//EN" "http://www.w3.org/Graphics/SVG/1.1/DTD/svg11.dtd">
<svg xmlns="http://www.w3.org/2000/svg" version="1.1" width="322px" height="300px" style="shape-rendering:geometricPrecision; text-rendering:geometricPrecision; image-rendering:optimizeQuality; fill-rule:evenodd; clip-rule:evenodd" xmlns:xlink="http://www.w3.org/1999/xlink">
<g><path style="opacity:0.918" fill="#fefdfd" d="M 254.5,-0.5 C 274.833,-0.5 295.167,-0.5 315.5,-0.5C 317.588,0.20081 319.588,1.20081 321.5,2.5C 321.5,100.5 321.5,198.5 321.5,296.5C 320.5,297.5 319.5,298.5 318.5,299.5C 296.167,299.5 273.833,299.5 251.5,299.5C 250.199,298.118 249.366,296.452 249,294.5C 248.333,198.167 248.333,101.833 249,5.5C 249.683,2.32119 251.516,0.321186 254.5,-0.5 Z"/></g>
<g><path style="opacity:0.895" fill="#fcf9f9" d="M -0.5,91.5 C -0.5,83.5 -0.5,75.5 -0.5,67.5C 6.43738,27.9864 30.104,10.1531 70.5,14C 95.3426,16.5088 111.509,29.6755 119,53.5C 126.038,78.5571 123.038,102.224 110,124.5C 100.64,136.102 88.4737,142.936 73.5,145C 31.5782,150.263 6.91152,132.43 -0.5,91.5 Z M 54.5,45.5 C 70.7619,42.9563 80.5952,49.623 84,65.5C 87.0053,79.7892 85.3386,93.4559 79,106.5C 76.2217,109.807 72.7217,111.974 68.5,113C 52.2043,116.613 42.0376,110.446 38,94.5C 35.5953,82.3103 36.262,70.3103 40,58.5C 43.1625,52.1641 47.9958,47.8308 54.5,45.5 Z"/></g>
<g><path style="opacity:0.897" fill="#fefdfd" d="M 127.5,15.5 C 158.502,15.3334 189.502,15.5 220.5,16C 222.723,16.6517 223.89,18.1517 224,20.5C 224.934,28.6047 224.601,36.6047 223,44.5C 222.097,45.7014 220.931,46.5348 219.5,47C 210.506,47.4998 201.506,47.6664 192.5,47.5C 192.667,78.1685 192.5,108.835 192,139.5C 191.833,142.333 190.333,143.833 187.5,144C 177.758,144.92 168.092,144.587 158.5,143C 157.874,142.25 157.374,141.416 157,140.5C 156.5,109.502 156.333,78.5018 156.5,47.5C 147.494,47.6664 138.494,47.4998 129.5,47C 128.234,46.6905 127.067,46.1905 126,45.5C 124.391,36.602 124.058,27.602 125,18.5C 126.045,17.6266 126.878,16.6266 127.5,15.5 Z"/></g>
<g><path style="opacity:1" fill="#ab3735" d="M 272.5,33.5 C 267.879,36.0676 263.212,35.901 258.5,33C 257.663,31.9887 257.33,30.8221 257.5,29.5C 256.5,29.5 255.5,29.5 254.5,29.5C 254.5,27.5 254.5,25.5 254.5,23.5C 256.5,23.5 258.5,23.5 260.5,23.5C 259.755,20.0696 261.089,18.403 264.5,18.5C 266.577,18.6922 268.577,19.1922 270.5,20C 269.663,21.0113 269.33,22.1779 269.5,23.5C 270.5,23.5 271.5,23.5 272.5,23.5C 272.5,22.5 272.5,21.5 272.5,20.5C 275.753,20.5622 278.753,21.3956 281.5,23C 278.628,25.85 275.128,27.35 271,27.5C 271.595,29.3502 272.095,31.3502 272.5,33.5 Z"/></g>
<g><path style="opacity:1" fill="#a83130" d="M 46.5,19.5 C 98.153,15.7284 121.32,39.7284 116,91.5C 113.268,120.565 97.4347,136.731 68.5,140C 36.9081,143.692 16.4081,130.525 7,100.5C 5.51229,87.8678 5.17895,75.2011 6,62.5C 8.61493,47.408 16.1149,35.5747 28.5,27C 34.3281,23.7883 40.3281,21.2883 46.5,19.5 Z M 54.5,45.5 C 47.9958,47.8308 43.1625,52.1641 40,58.5C 36.262,70.3103 35.5953,82.3103 38,94.5C 42.0376,110.446 52.2043,116.613 68.5,113C 72.7217,111.974 76.2217,109.807 79,106.5C 85.3386,93.4559 87.0053,79.7892 84,65.5C 80.5952,49.623 70.7619,42.9563 54.5,45.5 Z"/></g>
<g><path style="opacity:1" fill="#c36f6f" d="M 218.5,21.5 C 189.167,21.5 159.833,21.5 130.5,21.5C 130.5,28.1667 130.5,34.8333 130.5,41.5C 129.509,34.6866 129.175,27.6866 129.5,20.5C 159.338,20.1686 189.005,20.5019 218.5,21.5 Z"/></g>
<g><path style="opacity:1" fill="#a83030" d="M 218.5,21.5 C 218.5,28.1667 218.5,34.8333 218.5,41.5C 207.833,41.5 197.167,41.5 186.5,41.5C 186.5,73.8333 186.5,106.167 186.5,138.5C 178.167,138.5 169.833,138.5 161.5,138.5C 161.5,106.167 161.5,73.8333 161.5,41.5C 151.167,41.5 140.833,41.5 130.5,41.5C 130.5,34.8333 130.5,28.1667 130.5,21.5C 159.833,21.5 189.167,21.5 218.5,21.5 Z"/></g>
<g><path style="opacity:1" fill="#ac3a39" d="M 286.5,23.5 C 288.117,24.038 289.784,24.3713 291.5,24.5C 291.5,25.8333 291.5,27.1667 291.5,28.5C 289.143,28.6633 286.81,28.4966 284.5,28C 285.624,27.7508 286.624,27.2508 287.5,26.5C 286.873,25.5832 286.539,24.5832 286.5,23.5 Z"/></g>
<g><path style="opacity:1" fill="#b44c4b" d="M 282.5,24.5 C 283.043,24.56 283.376,24.8933 283.5,25.5C 282.635,26.5827 281.635,26.7494 280.5,26C 281.416,25.7216 282.082,25.2216 282.5,24.5 Z"/></g>
<g><path style="opacity:1" fill="#a93332" d="M 295.5,27.5 C 298.397,27.1253 301.063,27.6253 303.5,29C 300.5,29.6667 297.5,29.6667 294.5,29C 295.056,28.6174 295.389,28.1174 295.5,27.5 Z"/></g>
<g><path style="opacity:1" fill="#a93333" d="M 314.5,28.5 C 313.081,29.4511 311.415,29.7845 309.5,29.5C 308.711,29.2172 308.044,28.7172 307.5,28C 310.039,27.2042 312.372,27.3709 314.5,28.5 Z"/></g>
<g><path style="opacity:1" fill="#cd8787" d="M 314.5,28.5 C 315.289,28.7828 315.956,29.2828 316.5,30C 313.961,30.7958 311.628,30.6291 309.5,29.5C 311.415,29.7845 313.081,29.4511 314.5,28.5 Z"/></g>
<g><path style="opacity:1" fill="#af3f3d" d="M 281.5,35.5 C 279.012,37.3878 276.012,38.0545 272.5,37.5C 272.5,36.5 272.5,35.5 272.5,34.5C 273.857,33.3146 275.357,32.3146 277,31.5C 278.44,32.1476 279.94,32.4809 281.5,32.5C 281.5,33.5 281.5,34.5 281.5,35.5 Z"/></g>
<g><path style="opacity:1" fill="#cc8686" d="M 291.5,33.5 C 288.615,33.1936 285.948,33.5269 283.5,34.5C 283.167,34.5 282.833,34.5 282.5,34.5C 283.514,33.2353 285.014,32.5687 287,32.5C 288.707,32.5085 290.207,32.8418 291.5,33.5 Z"/></g>
<g><path style="opacity:1" fill="#ac3a38" d="M 291.5,33.5 C 299.836,33.7823 308.169,34.1156 316.5,34.5C 316.5,36.5 316.5,38.5 316.5,40.5C 314.833,40.5 313.167,40.5 311.5,40.5C 302.379,38.8476 293.046,37.8476 283.5,37.5C 283.5,36.5 283.5,35.5 283.5,34.5C 285.948,33.5269 288.615,33.1936 291.5,33.5 Z"/></g>
<g><path style="opacity:0.907" fill="#fcf9f9" d="M 55.5,39.5 C 74.5943,38.0948 86.0943,46.7614 90,65.5C 91.5445,79.181 90.2111,92.5144 86,105.5C 78.2744,116.977 67.4411,121.477 53.5,119C 40.4522,114.6 33.2855,105.434 32,91.5C 31.3333,82.8333 31.3333,74.1667 32,65.5C 34.5316,51.8115 42.365,43.1448 55.5,39.5 Z M 54.5,45.5 C 47.9958,47.8308 43.1625,52.1641 40,58.5C 36.262,70.3103 35.5953,82.3103 38,94.5C 42.0376,110.446 52.2043,116.613 68.5,113C 72.7217,111.974 76.2217,109.807 79,106.5C 85.3386,93.4559 87.0053,79.7892 84,65.5C 80.5952,49.623 70.7619,42.9563 54.5,45.5 Z"/></g>
<g><path style="opacity:1" fill="#a83130" d="M 284.5,40.5 C 292.183,40.5234 299.85,40.8567 307.5,41.5C 308.833,41.5 310.167,41.5 311.5,41.5C 312.568,42.4345 313.901,42.7678 315.5,42.5C 315.805,51.9167 315.472,61.25 314.5,70.5C 312.38,71.4506 310.714,72.9506 309.5,75C 306.895,76.0213 304.228,76.8546 301.5,77.5C 296.173,83.1608 290.84,88.8275 285.5,94.5C 284.503,76.6744 284.17,58.6744 284.5,40.5 Z"/></g>
<g><path style="opacity:1" fill="#e6c2c2" d="M 218.5,41.5 C 208.347,42.4942 198.014,42.8276 187.5,42.5C 187.832,74.671 187.498,106.671 186.5,138.5C 186.5,106.167 186.5,73.8333 186.5,41.5C 197.167,41.5 207.833,41.5 218.5,41.5 Z"/></g>
<g><path style="opacity:1" fill="#c97e7e" d="M 311.5,41.5 C 313.167,41.5 314.833,41.5 316.5,41.5C 316.5,51.1667 316.5,60.8333 316.5,70.5C 315.833,70.5 315.167,70.5 314.5,70.5C 315.472,61.25 315.805,51.9167 315.5,42.5C 313.901,42.7678 312.568,42.4345 311.5,41.5 Z"/></g>
<g><path style="opacity:1" fill="#c26d6d" d="M 284.5,40.5 C 284.17,58.6744 284.503,76.6744 285.5,94.5C 285.217,95.2891 284.717,95.9558 284,96.5C 283.171,77.6621 283.338,58.9955 284.5,40.5 Z"/></g>
<g><path style="opacity:1" fill="#fdfafa" d="M 254.5,23.5 C 254.5,25.5 254.5,27.5 254.5,29.5C 255.5,29.5 256.5,29.5 257.5,29.5C 257.33,30.8221 257.663,31.9887 258.5,33C 263.212,35.901 267.879,36.0676 272.5,33.5C 272.5,33.8333 272.5,34.1667 272.5,34.5C 272.5,35.5 272.5,36.5 272.5,37.5C 276.012,38.0545 279.012,37.3878 281.5,35.5C 282.167,35.5 282.5,35.1667 282.5,34.5C 282.833,34.5 283.167,34.5 283.5,34.5C 283.5,35.5 283.5,36.5 283.5,37.5C 293.046,37.8476 302.379,38.8476 311.5,40.5C 309.901,40.2322 308.568,40.5655 307.5,41.5C 299.85,40.8567 292.183,40.5234 284.5,40.5C 283.338,58.9955 283.171,77.6621 284,96.5C 284.717,95.9558 285.217,95.2891 285.5,94.5C 290.84,88.8275 296.173,83.1608 301.5,77.5C 304.228,76.8546 306.895,76.0213 309.5,75C 310.714,72.9506 312.38,71.4506 314.5,70.5C 315.167,70.5 315.833,70.5 316.5,70.5C 316.5,89.1667 316.5,107.833 316.5,126.5C 313.453,124.887 310.953,125.554 309,128.5C 308.749,135.631 309.416,142.631 311,149.5C 309.13,147.595 307.63,145.428 306.5,143C 304.729,140.887 303.229,141.053 302,143.5C 299.799,152.733 296.966,161.733 293.5,170.5C 292.549,169.081 292.216,167.415 292.5,165.5C 295.501,149.497 298.501,133.497 301.5,117.5C 294.133,118.044 290.967,122.044 292,129.5C 291.385,131.116 290.385,132.449 289,133.5C 288.667,139.167 288.333,144.833 288,150.5C 287.436,152.887 286.27,154.887 284.5,156.5C 283.5,156.833 282.833,157.5 282.5,158.5C 280.021,161.72 278.188,165.387 277,169.5C 275.962,175.645 274.628,181.645 273,187.5C 272.667,185.167 272.333,182.833 272,180.5C 271.311,179.643 270.478,178.977 269.5,178.5C 265.793,182.044 262.626,186.044 260,190.5C 258.866,189.575 257.699,188.575 256.5,187.5C 258.189,182.592 260.356,177.925 263,173.5C 264.104,168.479 265.271,163.479 266.5,158.5C 265.901,155.032 263.901,153.865 260.5,155C 257.836,157.669 256.002,160.836 255,164.5C 254.5,203.499 254.333,242.499 254.5,281.5C 253.204,183.499 253.204,97.4995 254.5,23.5 Z"/></g>
<g><path style="opacity:1" fill="#a82f2f" d="M 254.5,33.5 C 262.99,38.6997 272.323,40.6997 282.5,39.5C 282.833,59.5111 282.5,79.5111 281.5,99.5C 273.033,108.759 266.866,119.425 263,131.5C 260.705,134.797 258.038,137.797 255,140.5C 254.5,104.835 254.333,69.1682 254.5,33.5 Z"/></g>
<g><path style="opacity:1" fill="#a93131" d="M 292.5,165.5 C 291.371,167.628 291.204,169.961 292,172.5C 292.717,171.956 293.217,171.289 293.5,170.5C 296.966,161.733 299.799,152.733 302,143.5C 303.229,141.053 304.729,140.887 306.5,143C 307.63,145.428 309.13,147.595 311,149.5C 309.416,142.631 308.749,135.631 309,128.5C 310.953,125.554 313.453,124.887 316.5,126.5C 316.5,182.5 316.5,238.5 316.5,294.5C 295.833,294.5 275.167,294.5 254.5,294.5C 254.5,290.167 254.5,285.833 254.5,281.5C 254.333,242.499 254.5,203.499 255,164.5C 256.002,160.836 257.836,157.669 260.5,155C 263.901,153.865 265.901,155.032 266.5,158.5C 265.271,163.479 264.104,168.479 263,173.5C 260.356,177.925 258.189,182.592 256.5,187.5C 257.699,188.575 258.866,189.575 260,190.5C 262.626,186.044 265.793,182.044 269.5,178.5C 270.478,178.977 271.311,179.643 272,180.5C 272.333,182.833 272.667,185.167 273,187.5C 274.628,181.645 275.962,175.645 277,169.5C 278.188,165.387 280.021,161.72 282.5,158.5C 282.691,166.84 283.024,175.174 283.5,183.5C 282.842,184.398 282.176,185.398 281.5,186.5C 278.811,183.781 276.811,184.281 275.5,188C 278.567,191.919 279.233,196.252 277.5,201C 278.135,205.225 279.135,209.391 280.5,213.5C 281.5,214.333 282.5,215.167 283.5,216C 282.36,217.973 281.027,219.807 279.5,221.5C 281.738,222.383 283.905,222.05 286,220.5C 286.683,226.477 287.183,232.31 287.5,238C 290.167,238.667 292.833,238.667 295.5,238C 296.337,236.989 296.67,235.822 296.5,234.5C 294.856,234.714 293.356,234.38 292,233.5C 291.767,224.929 290.933,216.429 289.5,208C 290.014,204.82 291.847,202.986 295,202.5C 295.133,199.475 296.133,196.808 298,194.5C 298.828,190.129 298.661,185.795 297.5,181.5C 296.264,180.754 294.93,180.421 293.5,180.5C 293.836,176 291.836,174.167 287.5,175C 286.619,175.708 285.953,176.542 285.5,177.5C 284.86,170.785 284.527,163.785 284.5,156.5C 286.27,154.887 287.436,152.887 288,150.5C 288.333,144.833 288.667,139.167 289,133.5C 290.385,132.449 291.385,131.116 292,129.5C 290.967,122.044 294.133,118.044 301.5,117.5C 298.501,133.497 295.501,149.497 292.5,165.5 Z"/></g>
<g><path style="opacity:0.896" fill="#fdfafa" d="M 166.5,299.5 C 162.167,299.5 157.833,299.5 153.5,299.5C 142.919,298.308 132.753,295.308 123,290.5C 121.387,280.934 121.053,271.267 122,261.5C 123.378,259.787 125.045,258.453 127,257.5C 139.969,264.534 153.802,267.701 168.5,267C 175.351,262.044 175.018,257.377 167.5,253C 154.419,247.718 142.586,240.551 132,231.5C 120.199,215.622 119.532,199.289 130,182.5C 140.328,171.721 152.995,166.388 168,166.5C 180.296,167.198 192.129,170.032 203.5,175C 207.665,176.483 209.165,179.316 208,183.5C 205.39,189.053 203.057,194.719 201,200.5C 199.517,204.665 196.684,206.165 192.5,205C 182.613,199.97 172.279,198.303 161.5,200C 157.5,203.667 157.5,207.333 161.5,211C 170.657,215.412 179.657,220.078 188.5,225C 207.461,237.213 213.294,254.046 206,275.5C 200.959,285.542 193.125,292.375 182.5,296C 177.095,297.496 171.761,298.663 166.5,299.5 Z"/></g>
<g><path style="opacity:0.896" fill="#fefdfd" d="M 47.5,168.5 C 56.5062,168.334 65.5062,168.5 74.5,169C 75.9308,169.465 77.0975,170.299 78,171.5C 78.6667,212.5 78.6667,253.5 78,294.5C 77.1667,295.333 76.3333,296.167 75.5,297C 65.8333,297.667 56.1667,297.667 46.5,297C 44.9512,295.786 43.7845,294.286 43,292.5C 42.3333,252.833 42.3333,213.167 43,173.5C 44.025,171.313 45.525,169.646 47.5,168.5 Z"/></g>
<g><path style="opacity:1" fill="#dfafae" d="M 292.5,165.5 C 292.216,167.415 292.549,169.081 293.5,170.5C 293.217,171.289 292.717,171.956 292,172.5C 291.204,169.961 291.371,167.628 292.5,165.5 Z"/></g>
<g><path style="opacity:1" fill="#a93130" d="M 127.5,286.5 C 127.175,278.981 127.508,271.648 128.5,264.5C 138.455,269.318 148.955,271.985 160,272.5C 167.135,273.677 173.135,271.677 178,266.5C 180.37,261.386 179.703,256.72 176,252.5C 164.085,245.793 152.252,238.96 140.5,232C 130.288,222.696 126.454,211.196 129,197.5C 133.533,183.639 143.033,175.472 157.5,173C 173.025,171.423 187.859,173.923 202,180.5C 201.305,184.927 199.971,189.26 198,193.5C 197.205,196.115 195.705,198.115 193.5,199.5C 183.015,194.641 172.015,192.808 160.5,194C 151.571,199.181 150.237,205.847 156.5,214C 165.515,219.509 174.849,224.509 184.5,229C 204.038,240.622 208.871,256.789 199,277.5C 191.665,286.421 182.165,291.588 170.5,293C 158.278,294.325 146.278,293.325 134.5,290C 131.931,289.102 129.598,287.935 127.5,286.5 Z"/></g>
<g><path style="opacity:1" fill="#a83030" d="M 48.5,174.5 C 56.8333,174.5 65.1667,174.5 73.5,174.5C 73.5,213.833 73.5,253.167 73.5,292.5C 65.1667,292.5 56.8333,292.5 48.5,292.5C 48.5,253.167 48.5,213.833 48.5,174.5 Z"/></g>
<g><path style="opacity:1" fill="#fbf5f5" d="M 283.5,183.5 C 284.222,183.082 284.722,182.416 285,181.5C 285.893,182.711 286.726,182.711 287.5,181.5C 286.82,180.14 286.153,178.807 285.5,177.5C 285.953,176.542 286.619,175.708 287.5,175C 291.836,174.167 293.836,176 293.5,180.5C 294.93,180.421 296.264,180.754 297.5,181.5C 298.661,185.795 298.828,190.129 298,194.5C 296.133,196.808 295.133,199.475 295,202.5C 291.847,202.986 290.014,204.82 289.5,208C 290.933,216.429 291.767,224.929 292,233.5C 293.356,234.38 294.856,234.714 296.5,234.5C 296.67,235.822 296.337,236.989 295.5,238C 292.833,238.667 290.167,238.667 287.5,238C 287.183,232.31 286.683,226.477 286,220.5C 283.905,222.05 281.738,222.383 279.5,221.5C 281.027,219.807 282.36,217.973 283.5,216C 282.5,215.167 281.5,214.333 280.5,213.5C 279.135,209.391 278.135,205.225 277.5,201C 279.233,196.252 278.567,191.919 275.5,188C 276.811,184.281 278.811,183.781 281.5,186.5C 282.176,185.398 282.842,184.398 283.5,183.5 Z"/></g>
<g><path style="opacity:1" fill="#e5bdbd" d="M 284.5,156.5 C 284.527,163.785 284.86,170.785 285.5,177.5C 286.153,178.807 286.82,180.14 287.5,181.5C 286.726,182.711 285.893,182.711 285,181.5C 284.722,182.416 284.222,183.082 283.5,183.5C 283.024,175.174 282.691,166.84 282.5,158.5C 282.833,157.5 283.5,156.833 284.5,156.5 Z"/></g>
<g><path style="opacity:1" fill="#b95755" d="M 285.5,192.5 C 286.573,193.251 286.74,194.251 286,195.5C 284.272,194.648 284.105,193.648 285.5,192.5 Z"/></g>
<g><path style="opacity:1" fill="#cd8888" d="M 128.5,264.5 C 127.508,271.648 127.175,278.981 127.5,286.5C 126.18,278.99 126.18,271.323 127.5,263.5C 128.107,263.624 128.44,263.957 128.5,264.5 Z"/></g>
</svg>
