<svg width="243" height="364" viewBox="0 0 243 364" fill="none" xmlns="http://www.w3.org/2000/svg">
<rect x="17" y="21" width="209" height="343" rx="21" fill="#222329"/>
<rect width="243" height="343" rx="21" fill="#292A31"/>
<path d="M39.9609 322.926H38.4961V322.082H39.9609C40.2005 322.082 40.3945 322.043 40.543 321.965C40.694 321.884 40.8047 321.775 40.875 321.637C40.9453 321.496 40.9805 321.336 40.9805 321.156C40.9805 320.982 40.9453 320.819 40.875 320.668C40.8047 320.517 40.694 320.395 40.543 320.301C40.3945 320.207 40.2005 320.16 39.9609 320.16H38.8477V325H37.7734V319.312H39.9609C40.4036 319.312 40.7812 319.392 41.0938 319.551C41.4089 319.707 41.6484 319.924 41.8125 320.203C41.9792 320.479 42.0625 320.794 42.0625 321.148C42.0625 321.516 41.9792 321.832 41.8125 322.098C41.6484 322.363 41.4089 322.568 41.0938 322.711C40.7812 322.854 40.4036 322.926 39.9609 322.926ZM42.5898 322.93V322.848C42.5898 322.538 42.6341 322.253 42.7227 321.992C42.8112 321.729 42.9401 321.501 43.1094 321.309C43.2786 321.116 43.4857 320.966 43.7305 320.859C43.9753 320.75 44.2539 320.695 44.5664 320.695C44.8841 320.695 45.1654 320.75 45.4102 320.859C45.6576 320.966 45.8659 321.116 46.0352 321.309C46.2044 321.501 46.3333 321.729 46.4219 321.992C46.5104 322.253 46.5547 322.538 46.5547 322.848V322.93C46.5547 323.237 46.5104 323.522 46.4219 323.785C46.3333 324.046 46.2044 324.273 46.0352 324.469C45.8659 324.661 45.6589 324.811 45.4141 324.918C45.1693 325.025 44.8893 325.078 44.5742 325.078C44.2617 325.078 43.9818 325.025 43.7344 324.918C43.487 324.811 43.2786 324.661 43.1094 324.469C42.9401 324.273 42.8112 324.046 42.7227 323.785C42.6341 323.522 42.5898 323.237 42.5898 322.93ZM43.6211 322.848V322.93C43.6211 323.115 43.6393 323.288 43.6758 323.449C43.7122 323.611 43.7682 323.753 43.8438 323.875C43.9193 323.997 44.0169 324.094 44.1367 324.164C44.2591 324.232 44.4049 324.266 44.5742 324.266C44.7409 324.266 44.8841 324.232 45.0039 324.164C45.1237 324.094 45.2214 323.997 45.2969 323.875C45.375 323.753 45.4323 323.611 45.4688 323.449C45.5052 323.288 45.5234 323.115 45.5234 322.93V322.848C45.5234 322.665 45.5052 322.495 45.4688 322.336C45.4323 322.174 45.375 322.033 45.2969 321.91C45.2214 321.785 45.1224 321.688 45 321.617C44.8802 321.544 44.7357 321.508 44.5664 321.508C44.3997 321.508 44.2565 321.544 44.1367 321.617C44.0169 321.688 43.9193 321.785 43.8438 321.91C43.7682 322.033 43.7122 322.174 43.6758 322.336C43.6393 322.495 43.6211 322.665 43.6211 322.848ZM49.0391 324.266C49.1849 324.266 49.3151 324.237 49.4297 324.18C49.5443 324.122 49.6354 324.042 49.7031 323.938C49.7734 323.833 49.8112 323.712 49.8164 323.574H50.7891C50.7839 323.861 50.7031 324.117 50.5469 324.344C50.3906 324.57 50.1823 324.75 49.9219 324.883C49.6641 325.013 49.375 325.078 49.0547 325.078C48.7292 325.078 48.4453 325.023 48.2031 324.914C47.9609 324.805 47.7591 324.652 47.5977 324.457C47.4388 324.262 47.319 324.035 47.2383 323.777C47.1602 323.52 47.1211 323.243 47.1211 322.949V322.824C47.1211 322.53 47.1602 322.254 47.2383 321.996C47.319 321.738 47.4388 321.512 47.5977 321.316C47.7591 321.121 47.9609 320.969 48.2031 320.859C48.4453 320.75 48.7279 320.695 49.0508 320.695C49.3919 320.695 49.6914 320.762 49.9492 320.895C50.2096 321.027 50.4128 321.215 50.5586 321.457C50.707 321.699 50.7839 321.984 50.7891 322.312H49.8164C49.8112 322.161 49.7773 322.026 49.7148 321.906C49.6523 321.786 49.5638 321.69 49.4492 321.617C49.3346 321.544 49.1953 321.508 49.0312 321.508C48.8568 321.508 48.7109 321.544 48.5938 321.617C48.4792 321.69 48.3893 321.79 48.3242 321.918C48.2617 322.043 48.2174 322.184 48.1914 322.34C48.168 322.493 48.1562 322.655 48.1562 322.824V322.949C48.1562 323.121 48.168 323.285 48.1914 323.441C48.2174 323.598 48.2617 323.738 48.3242 323.863C48.3893 323.986 48.4792 324.083 48.5938 324.156C48.7109 324.229 48.8594 324.266 49.0391 324.266ZM48.3477 319L48.9258 319.59L49.5078 319H50.3945V319.039L49.2578 320.129H48.6016L47.4648 319.035V319H48.3477ZM53.375 325.078C53.0547 325.078 52.7669 325.026 52.5117 324.922C52.2565 324.818 52.0391 324.673 51.8594 324.488C51.6823 324.301 51.5456 324.083 51.4492 323.836C51.3555 323.586 51.3086 323.318 51.3086 323.031V322.875C51.3086 322.549 51.3555 322.254 51.4492 321.988C51.543 321.72 51.6758 321.49 51.8477 321.297C52.0195 321.104 52.2253 320.956 52.4648 320.852C52.7044 320.747 52.9688 320.695 53.2578 320.695C53.5573 320.695 53.8216 320.746 54.0508 320.848C54.2799 320.947 54.4714 321.087 54.625 321.27C54.7786 321.452 54.8945 321.671 54.9727 321.926C55.0508 322.178 55.0898 322.458 55.0898 322.766V323.199H51.7773V322.488H54.0742V322.41C54.069 322.246 54.0378 322.096 53.9805 321.961C53.9232 321.823 53.8346 321.714 53.7148 321.633C53.5951 321.549 53.4401 321.508 53.25 321.508C53.0964 321.508 52.9622 321.542 52.8477 321.609C52.7357 321.674 52.6419 321.768 52.5664 321.891C52.4935 322.01 52.4388 322.154 52.4023 322.32C52.3659 322.487 52.3477 322.672 52.3477 322.875V323.031C52.3477 323.208 52.3711 323.372 52.418 323.523C52.4674 323.674 52.5391 323.806 52.6328 323.918C52.7292 324.027 52.8438 324.113 52.9766 324.176C53.112 324.236 53.2656 324.266 53.4375 324.266C53.6536 324.266 53.849 324.224 54.0234 324.141C54.2005 324.055 54.3542 323.928 54.4844 323.762L55.0039 324.301C54.9154 324.431 54.7956 324.556 54.6445 324.676C54.4961 324.796 54.3164 324.893 54.1055 324.969C53.8945 325.042 53.651 325.078 53.375 325.078ZM57.7812 320.773V321.516H55.3594V320.773H57.7812ZM56.0078 319.734H57.043V323.781C57.043 323.906 57.0599 324.003 57.0938 324.07C57.1276 324.138 57.1784 324.184 57.2461 324.207C57.3138 324.23 57.3945 324.242 57.4883 324.242C57.556 324.242 57.6185 324.238 57.6758 324.23C57.7331 324.223 57.7812 324.215 57.8203 324.207L57.8242 324.98C57.7383 325.009 57.6406 325.033 57.5312 325.051C57.4245 325.069 57.3034 325.078 57.168 325.078C56.9362 325.078 56.7331 325.039 56.5586 324.961C56.3841 324.88 56.2487 324.751 56.1523 324.574C56.056 324.395 56.0078 324.158 56.0078 323.863V319.734ZM59.4805 321.676V325H58.4492V320.773H59.418L59.4805 321.676ZM59.3164 322.734H59.0117C59.0143 322.427 59.056 322.148 59.1367 321.898C59.2174 321.648 59.3307 321.434 59.4766 321.254C59.625 321.074 59.8008 320.936 60.0039 320.84C60.207 320.743 60.4336 320.695 60.6836 320.695C60.8867 320.695 61.0703 320.724 61.2344 320.781C61.3984 320.839 61.5391 320.93 61.6562 321.055C61.776 321.18 61.8672 321.344 61.9297 321.547C61.9948 321.747 62.0273 321.995 62.0273 322.289V325H60.9883V322.281C60.9883 322.089 60.9596 321.936 60.9023 321.824C60.8477 321.712 60.7669 321.633 60.6602 321.586C60.556 321.539 60.4271 321.516 60.2734 321.516C60.1146 321.516 59.9753 321.548 59.8555 321.613C59.7383 321.676 59.6393 321.763 59.5586 321.875C59.4805 321.987 59.4206 322.116 59.3789 322.262C59.3372 322.408 59.3164 322.565 59.3164 322.734ZM65.2656 324.102V322.152C65.2656 322.009 65.2409 321.885 65.1914 321.781C65.1419 321.677 65.0664 321.596 64.9648 321.539C64.8633 321.482 64.7344 321.453 64.5781 321.453C64.4401 321.453 64.319 321.477 64.2148 321.523C64.1133 321.57 64.0352 321.637 63.9805 321.723C63.9258 321.806 63.8984 321.902 63.8984 322.012H62.8633C62.8633 321.837 62.9049 321.672 62.9883 321.516C63.0716 321.357 63.1901 321.216 63.3438 321.094C63.5 320.969 63.6862 320.871 63.9023 320.801C64.1211 320.73 64.3659 320.695 64.6367 320.695C64.957 320.695 65.2422 320.75 65.4922 320.859C65.7448 320.966 65.9427 321.128 66.0859 321.344C66.2318 321.56 66.3047 321.832 66.3047 322.16V324.004C66.3047 324.215 66.3177 324.396 66.3438 324.547C66.3724 324.695 66.4141 324.824 66.4688 324.934V325H65.418C65.3685 324.893 65.3307 324.758 65.3047 324.594C65.2786 324.427 65.2656 324.263 65.2656 324.102ZM65.4102 322.426L65.418 323.039H64.7656C64.6042 323.039 64.4622 323.056 64.3398 323.09C64.2174 323.121 64.1172 323.168 64.0391 323.23C63.9609 323.29 63.9023 323.363 63.8633 323.449C63.8242 323.533 63.8047 323.628 63.8047 323.734C63.8047 323.839 63.8281 323.932 63.875 324.016C63.9245 324.099 63.9948 324.165 64.0859 324.215C64.1797 324.262 64.2891 324.285 64.4141 324.285C64.5964 324.285 64.7552 324.249 64.8906 324.176C65.026 324.1 65.1315 324.009 65.207 323.902C65.2826 323.796 65.3229 323.694 65.3281 323.598L65.625 324.043C65.5885 324.15 65.5339 324.263 65.4609 324.383C65.388 324.503 65.2943 324.615 65.1797 324.719C65.0651 324.823 64.9271 324.909 64.7656 324.977C64.6042 325.044 64.4167 325.078 64.2031 325.078C63.9297 325.078 63.6849 325.023 63.4688 324.914C63.2526 324.805 63.082 324.655 62.957 324.465C62.832 324.275 62.7695 324.059 62.7695 323.816C62.7695 323.592 62.8112 323.395 62.8945 323.223C62.9779 323.051 63.1016 322.906 63.2656 322.789C63.4297 322.669 63.6328 322.579 63.875 322.52C64.1198 322.457 64.3997 322.426 64.7148 322.426H65.4102Z" fill="#AA1111"/>
<path d="M49.6822 295.154L42.0006 301.882C41.3062 302.491 41.7363 303.635 42.6595 303.635H43.0556V313C43.0556 313.552 43.5033 314 44.0556 314H48.5556V309.017C48.5556 307.912 49.451 307.017 50.5556 307.017H51.4444C52.549 307.017 53.4444 307.912 53.4444 309.017V314H57.9444C58.4967 314 58.9444 313.552 58.9444 313V303.635H59.3405C60.2637 303.635 60.6938 302.491 59.9994 301.882L52.3178 295.154C51.5635 294.494 50.4365 294.494 49.6822 295.154Z" fill="#AA1111" stroke="#AA1111" stroke-width="2"/>
<g filter="url(#filter0_d_393_470)">
<circle cx="122" cy="106" r="63" fill="#A83030"/>
<circle cx="122" cy="106" r="59.5" stroke="url(#paint0_linear_393_470)" stroke-width="7"/>
</g>
<g filter="url(#filter1_d_393_470)">
<path d="M81.7979 110.917C81.7979 110.774 81.7767 110.645 81.7344 110.53C81.6921 110.412 81.6138 110.302 81.4996 110.2C81.3853 110.099 81.2203 109.997 81.0044 109.896C80.7929 109.79 80.5136 109.68 80.1666 109.565C79.7603 109.43 79.3689 109.278 78.9922 109.108C78.6156 108.935 78.2792 108.734 77.983 108.505C77.6867 108.273 77.4519 108.002 77.2784 107.693C77.1049 107.38 77.0181 107.016 77.0181 106.601C77.0181 106.203 77.107 105.846 77.2847 105.528C77.4625 105.207 77.71 104.934 78.0274 104.709C78.349 104.481 78.7256 104.307 79.1573 104.189C79.5889 104.066 80.0608 104.005 80.5728 104.005C81.2499 104.005 81.8466 104.123 82.3628 104.36C82.8834 104.593 83.2896 104.925 83.5816 105.357C83.8778 105.784 84.0259 106.29 84.0259 106.874H81.8106C81.8106 106.641 81.7619 106.436 81.6646 106.258C81.5715 106.081 81.4297 105.941 81.2393 105.839C81.0489 105.738 80.8098 105.687 80.522 105.687C80.2427 105.687 80.0079 105.729 79.8174 105.814C79.627 105.899 79.4831 106.013 79.3858 106.157C79.2885 106.296 79.2398 106.451 79.2398 106.62C79.2398 106.76 79.2779 106.887 79.3541 107.001C79.4345 107.111 79.5466 107.215 79.6905 107.312C79.8386 107.409 80.0163 107.502 80.2237 107.591C80.4353 107.68 80.6723 107.767 80.9346 107.852C81.4255 108.008 81.8614 108.184 82.2422 108.378C82.6273 108.569 82.9511 108.787 83.2134 109.032C83.48 109.273 83.681 109.549 83.8165 109.857C83.9561 110.166 84.0259 110.515 84.0259 110.905C84.0259 111.32 83.9455 111.688 83.7847 112.009C83.6239 112.331 83.3933 112.604 83.0928 112.828C82.7924 113.048 82.4327 113.215 82.0137 113.33C81.5948 113.444 81.1272 113.501 80.6109 113.501C80.1369 113.501 79.6693 113.442 79.2081 113.323C78.751 113.201 78.3363 113.014 77.9639 112.765C77.5915 112.511 77.2932 112.187 77.0689 111.793C76.8488 111.396 76.7388 110.924 76.7388 110.378H78.9732C78.9732 110.649 79.0092 110.877 79.0811 111.063C79.153 111.25 79.2588 111.4 79.3985 111.514C79.5381 111.624 79.7095 111.705 79.9127 111.755C80.1158 111.802 80.3485 111.825 80.6109 111.825C80.8944 111.825 81.1229 111.785 81.2964 111.705C81.4699 111.62 81.5969 111.51 81.6773 111.375C81.7577 111.235 81.7979 111.083 81.7979 110.917ZM87.5425 104.132V113.374H85.3209V104.132H87.5425ZM96.6705 108.436V112.231C96.5139 112.405 96.2727 112.591 95.9468 112.79C95.6252 112.985 95.219 113.152 94.7281 113.292C94.2372 113.431 93.6596 113.501 92.9952 113.501C92.3816 113.501 91.8251 113.404 91.3257 113.209C90.8264 113.01 90.3969 112.72 90.0372 112.339C89.6817 111.954 89.4066 111.485 89.212 110.93C89.0215 110.372 88.9263 109.733 88.9263 109.013V108.499C88.9263 107.78 89.0237 107.141 89.2183 106.582C89.413 106.023 89.6859 105.554 90.0372 105.173C90.3926 104.788 90.8095 104.496 91.2877 104.297C91.7701 104.098 92.299 103.999 92.8746 103.999C93.7252 103.999 94.417 104.134 94.9502 104.405C95.4835 104.671 95.8876 105.042 96.1627 105.516C96.4377 105.985 96.6049 106.529 96.6641 107.147H94.525C94.4826 106.842 94.4022 106.584 94.2837 106.373C94.1695 106.157 94.0044 105.994 93.7886 105.884C93.5728 105.77 93.2935 105.712 92.9507 105.712C92.6841 105.712 92.4408 105.77 92.2208 105.884C92.0049 105.998 91.8209 106.172 91.6685 106.404C91.5162 106.633 91.3977 106.921 91.313 107.268C91.2326 107.615 91.1924 108.021 91.1924 108.486V109.013C91.1924 109.474 91.2305 109.879 91.3067 110.226C91.3871 110.573 91.5056 110.862 91.6622 111.095C91.823 111.324 92.0261 111.497 92.2715 111.616C92.5212 111.73 92.8153 111.787 93.1539 111.787C93.3908 111.787 93.594 111.768 93.7632 111.73C93.9325 111.688 94.0722 111.637 94.1822 111.578C94.2964 111.514 94.3832 111.455 94.4424 111.4V109.965H92.8936V108.436H96.6705ZM102.986 104.132H105.214V110.168C105.214 110.888 105.064 111.497 104.764 111.997C104.463 112.492 104.042 112.866 103.501 113.12C102.959 113.374 102.322 113.501 101.59 113.501C100.866 113.501 100.229 113.374 99.6793 113.12C99.1334 112.866 98.7059 112.492 98.397 111.997C98.0923 111.497 97.94 110.888 97.94 110.168V104.132H100.174V110.168C100.174 110.549 100.229 110.86 100.339 111.102C100.449 111.339 100.61 111.512 100.822 111.622C101.033 111.732 101.289 111.787 101.59 111.787C101.895 111.787 102.151 111.732 102.358 111.622C102.565 111.512 102.722 111.339 102.828 111.102C102.933 110.86 102.986 110.549 102.986 110.168V104.132ZM106.617 104.132H110.254C110.965 104.132 111.583 104.238 112.108 104.449C112.633 104.661 113.037 104.974 113.32 105.389C113.608 105.803 113.752 106.315 113.752 106.925C113.752 107.454 113.669 107.896 113.504 108.251C113.339 108.607 113.109 108.901 112.813 109.134C112.521 109.362 112.18 109.551 111.791 109.699L111.061 110.111H108.007L107.995 108.391H110.254C110.538 108.391 110.773 108.34 110.959 108.239C111.145 108.137 111.285 107.993 111.378 107.807C111.475 107.617 111.524 107.39 111.524 107.128C111.524 106.861 111.475 106.633 111.378 106.442C111.281 106.252 111.137 106.106 110.946 106.004C110.76 105.903 110.53 105.852 110.254 105.852H108.845V113.374H106.617V104.132ZM111.676 113.374L109.632 109.286L111.994 109.273L114.063 113.279V113.374H111.676ZM119.014 106.074L116.761 113.374H114.368L117.764 104.132H119.281L119.014 106.074ZM120.88 113.374L118.621 106.074L118.329 104.132H119.865L123.28 113.374H120.88ZM120.792 109.927V111.647H116.05V109.927H120.792ZM131.678 104.132V113.374H129.456L126.187 107.623V113.374H123.959V104.132H126.187L129.456 109.883V104.132H131.678ZM141.085 110.917C141.085 110.774 141.064 110.645 141.022 110.53C140.979 110.412 140.901 110.302 140.787 110.2C140.672 110.099 140.507 109.997 140.292 109.896C140.08 109.79 139.801 109.68 139.454 109.565C139.047 109.43 138.656 109.278 138.279 109.108C137.903 108.935 137.566 108.734 137.27 108.505C136.974 108.273 136.739 108.002 136.565 107.693C136.392 107.38 136.305 107.016 136.305 106.601C136.305 106.203 136.394 105.846 136.572 105.528C136.75 105.207 136.997 104.934 137.315 104.709C137.636 104.481 138.013 104.307 138.444 104.189C138.876 104.066 139.348 104.005 139.86 104.005C140.537 104.005 141.134 104.123 141.65 104.36C142.17 104.593 142.577 104.925 142.869 105.357C143.165 105.784 143.313 106.29 143.313 106.874H141.098C141.098 106.641 141.049 106.436 140.952 106.258C140.859 106.081 140.717 105.941 140.526 105.839C140.336 105.738 140.097 105.687 139.809 105.687C139.53 105.687 139.295 105.729 139.105 105.814C138.914 105.899 138.77 106.013 138.673 106.157C138.576 106.296 138.527 106.451 138.527 106.62C138.527 106.76 138.565 106.887 138.641 107.001C138.722 107.111 138.834 107.215 138.978 107.312C139.126 107.409 139.303 107.502 139.511 107.591C139.722 107.68 139.959 107.767 140.222 107.852C140.713 108.008 141.148 108.184 141.529 108.378C141.914 108.569 142.238 108.787 142.501 109.032C142.767 109.273 142.968 109.549 143.104 109.857C143.243 110.166 143.313 110.515 143.313 110.905C143.313 111.32 143.233 111.688 143.072 112.009C142.911 112.331 142.68 112.604 142.38 112.828C142.079 113.048 141.72 113.215 141.301 113.33C140.882 113.444 140.414 113.501 139.898 113.501C139.424 113.501 138.956 113.442 138.495 113.323C138.038 113.201 137.623 113.014 137.251 112.765C136.879 112.511 136.58 112.187 136.356 111.793C136.136 111.396 136.026 110.924 136.026 110.378H138.26C138.26 110.649 138.296 110.877 138.368 111.063C138.44 111.25 138.546 111.4 138.686 111.514C138.825 111.624 138.997 111.705 139.2 111.755C139.403 111.802 139.636 111.825 139.898 111.825C140.182 111.825 140.41 111.785 140.584 111.705C140.757 111.62 140.884 111.51 140.964 111.375C141.045 111.235 141.085 111.083 141.085 110.917ZM148.378 106.074L146.125 113.374H143.732L147.128 104.132H148.645L148.378 106.074ZM150.245 113.374L147.985 106.074L147.693 104.132H149.229L152.644 113.374H150.245ZM150.156 109.927V111.647H145.414V109.927H150.156ZM154.428 104.132H156.243L158.306 110.562L160.369 104.132H162.185L159.043 113.374H157.57L154.428 104.132ZM153.323 104.132H155.202L155.551 111.216V113.374H153.323V104.132ZM161.41 104.132H163.295V113.374H161.061V111.216L161.41 104.132Z" fill="white"/>
</g>
<rect x="26" y="200" width="192" height="20" rx="5" fill="#53545D"/>
<rect x="68" y="229" width="108" height="20" rx="5" fill="#53545D"/>
<rect x="107" y="293" width="25" height="25" rx="12.5" fill="#53545D"/>
<rect x="172" y="293" width="25" height="25" rx="12.5" fill="#53545D"/>
<defs>
<filter id="filter0_d_393_470" x="49" y="34" width="146" height="146" filterUnits="userSpaceOnUse" color-interpolation-filters="sRGB">
<feFlood flood-opacity="0" result="BackgroundImageFix"/>
<feColorMatrix in="SourceAlpha" type="matrix" values="0 0 0 0 0 0 0 0 0 0 0 0 0 0 0 0 0 0 127 0" result="hardAlpha"/>
<feMorphology radius="3" operator="dilate" in="SourceAlpha" result="effect1_dropShadow_393_470"/>
<feOffset dy="1"/>
<feGaussianBlur stdDeviation="3.5"/>
<feComposite in2="hardAlpha" operator="out"/>
<feColorMatrix type="matrix" values="0 0 0 0 0 0 0 0 0 0 0 0 0 0 0 0 0 0 0.44 0"/>
<feBlend mode="normal" in2="BackgroundImageFix" result="effect1_dropShadow_393_470"/>
<feBlend mode="normal" in="SourceGraphic" in2="effect1_dropShadow_393_470" result="shape"/>
</filter>
<filter id="filter1_d_393_470" x="74.7388" y="102.999" width="90.5566" height="13.5024" filterUnits="userSpaceOnUse" color-interpolation-filters="sRGB">
<feFlood flood-opacity="0" result="BackgroundImageFix"/>
<feColorMatrix in="SourceAlpha" type="matrix" values="0 0 0 0 0 0 0 0 0 0 0 0 0 0 0 0 0 0 127 0" result="hardAlpha"/>
<feOffset dy="1"/>
<feGaussianBlur stdDeviation="1"/>
<feComposite in2="hardAlpha" operator="out"/>
<feColorMatrix type="matrix" values="0 0 0 0 0 0 0 0 0 0 0 0 0 0 0 0 0 0 0.25 0"/>
<feBlend mode="normal" in2="BackgroundImageFix" result="effect1_dropShadow_393_470"/>
<feBlend mode="normal" in="SourceGraphic" in2="effect1_dropShadow_393_470" result="shape"/>
</filter>
<linearGradient id="paint0_linear_393_470" x1="122" y1="43" x2="122" y2="169" gradientUnits="userSpaceOnUse">
<stop stop-color="#CC4848"/>
<stop offset="1" stop-color="#751B1B"/>
</linearGradient>
</defs>
</svg>
