<svg width="243" height="364" viewBox="0 0 243 364" fill="none" xmlns="http://www.w3.org/2000/svg">
<rect x="17" y="21" width="209" height="343" rx="21" fill="#222329"/>
<rect width="243" height="343" rx="21" fill="#292A31"/>
<rect x="44" y="31" width="152" height="28.5" rx="14.25" fill="#53545D"/>
<rect x="44" y="31" width="82.7857" height="28.5" rx="14.25" fill="#A83030"/>
<path d="M66.8984 42.8125V48.5H65.7266V42.8125H66.8984ZM70.3047 42.8125L68.0508 45.6211L66.75 47.0195L66.5391 45.9102L67.418 44.707L68.8672 42.8125H70.3047ZM68.9727 48.5L67.2969 45.8711L68.1641 45.1445L70.3594 48.5H68.9727ZM75.3594 45.5234V45.793C75.3594 46.2253 75.3008 46.6133 75.1836 46.957C75.0664 47.3008 74.901 47.5938 74.6875 47.8359C74.474 48.0755 74.2188 48.2591 73.9219 48.3867C73.6276 48.5143 73.3008 48.5781 72.9414 48.5781C72.5846 48.5781 72.2578 48.5143 71.9609 48.3867C71.6667 48.2591 71.4115 48.0755 71.1953 47.8359C70.9792 47.5938 70.8112 47.3008 70.6914 46.957C70.5742 46.6133 70.5156 46.2253 70.5156 45.793V45.5234C70.5156 45.0885 70.5742 44.7005 70.6914 44.3594C70.8086 44.0156 70.974 43.7227 71.1875 43.4805C71.4036 43.2383 71.6589 43.0534 71.9531 42.9258C72.25 42.7982 72.5768 42.7344 72.9336 42.7344C73.293 42.7344 73.6198 42.7982 73.9141 42.9258C74.2109 43.0534 74.4661 43.2383 74.6797 43.4805C74.8958 43.7227 75.0625 44.0156 75.1797 44.3594C75.2995 44.7005 75.3594 45.0885 75.3594 45.5234ZM74.1758 45.793V45.5156C74.1758 45.2135 74.1484 44.9479 74.0938 44.7188C74.0391 44.4896 73.9583 44.2969 73.8516 44.1406C73.7448 43.9844 73.6146 43.8672 73.4609 43.7891C73.3073 43.7083 73.1315 43.668 72.9336 43.668C72.7357 43.668 72.5599 43.7083 72.4062 43.7891C72.2552 43.8672 72.1263 43.9844 72.0195 44.1406C71.9154 44.2969 71.8359 44.4896 71.7812 44.7188C71.7266 44.9479 71.6992 45.2135 71.6992 45.5156V45.793C71.6992 46.0924 71.7266 46.3581 71.7812 46.5898C71.8359 46.819 71.9167 47.013 72.0234 47.1719C72.1302 47.3281 72.2604 47.4466 72.4141 47.5273C72.5677 47.6081 72.7435 47.6484 72.9414 47.6484C73.1393 47.6484 73.3151 47.6081 73.4688 47.5273C73.6224 47.4466 73.7513 47.3281 73.8555 47.1719C73.9596 47.013 74.0391 46.819 74.0938 46.5898C74.1484 46.3581 74.1758 46.0924 74.1758 45.793ZM80.832 42.8125V48.5H79.6602L77.375 44.6875V48.5H76.2031V42.8125H77.375L79.6641 46.6289V42.8125H80.832ZM84.2773 42.8125V48.5H83.1094V42.8125H84.2773ZM86.0273 42.8125V43.7305H81.3867V42.8125H86.0273ZM88.5859 43.7852L87.0391 48.5H85.793L87.9062 42.8125H88.6992L88.5859 43.7852ZM89.8711 48.5L88.3203 43.7852L88.1953 42.8125H88.9961L91.1211 48.5H89.8711ZM89.8008 46.3828V47.3008H86.7969V46.3828H89.8008ZM92.8203 42.8125V48.5H91.6484V42.8125H92.8203ZM96.2266 42.8125L93.9727 45.6211L92.6719 47.0195L92.4609 45.9102L93.3398 44.707L94.7891 42.8125H96.2266ZM94.8945 48.5L93.2188 45.8711L94.0859 45.1445L96.2812 48.5H94.8945ZM99.2773 42.8125V48.5H98.1094V42.8125H99.2773ZM101.027 42.8125V43.7305H96.3867V42.8125H101.027ZM102.941 42.8125V48.5H101.773V42.8125H102.941Z" fill="white"/>
<rect x="31" y="85" width="182" height="28" rx="8" fill="#53545D"/>
<rect x="84" y="96" width="72" height="8" rx="4" fill="#41424D"/>
<rect x="31" y="119" width="182" height="28" rx="8" fill="#53545D"/>
<rect x="189" y="123" width="19" height="19" rx="9.5" fill="#41424D"/>
<path d="M198.5 131.125V136.625M200.425 131.125L200.15 136.625M196.575 131.125L196.85 136.625" stroke="white" stroke-linecap="round"/>
<path d="M194.1 129.75L194.529 136.404C194.597 137.456 195.471 138.275 196.525 138.275H200.475C201.529 138.275 202.403 137.456 202.471 136.404L202.9 129.75" stroke="white"/>
<path d="M196.3 128.1V128C196.3 127.448 196.748 127 197.3 127H199.425C199.977 127 200.425 127.448 200.425 128C200.425 128.038 200.425 128.072 200.425 128.1" stroke="white"/>
<rect x="193.5" y="128.325" width="10" height="1.2" rx="0.6" stroke="white"/>
<rect x="31" y="153" width="182" height="28" rx="8" fill="#A83030"/>
<path d="M110.414 170H109.176L109.184 169.086H110.414C110.721 169.086 110.98 169.017 111.191 168.879C111.402 168.738 111.561 168.534 111.668 168.266C111.777 167.997 111.832 167.673 111.832 167.293V167.016C111.832 166.724 111.801 166.467 111.738 166.246C111.678 166.025 111.589 165.839 111.469 165.688C111.349 165.536 111.202 165.423 111.027 165.348C110.853 165.27 110.652 165.23 110.426 165.23H109.152V164.312H110.426C110.806 164.312 111.154 164.378 111.469 164.508C111.786 164.635 112.061 164.819 112.293 165.059C112.525 165.298 112.703 165.585 112.828 165.918C112.956 166.249 113.02 166.617 113.02 167.023V167.293C113.02 167.697 112.956 168.065 112.828 168.398C112.703 168.732 112.525 169.018 112.293 169.258C112.064 169.495 111.789 169.678 111.469 169.809C111.151 169.936 110.799 170 110.414 170ZM109.84 164.312V170H108.668V164.312H109.84ZM118.543 167.023V167.293C118.543 167.725 118.484 168.113 118.367 168.457C118.25 168.801 118.085 169.094 117.871 169.336C117.658 169.576 117.402 169.759 117.105 169.887C116.811 170.014 116.484 170.078 116.125 170.078C115.768 170.078 115.441 170.014 115.145 169.887C114.85 169.759 114.595 169.576 114.379 169.336C114.163 169.094 113.995 168.801 113.875 168.457C113.758 168.113 113.699 167.725 113.699 167.293V167.023C113.699 166.589 113.758 166.201 113.875 165.859C113.992 165.516 114.158 165.223 114.371 164.98C114.587 164.738 114.842 164.553 115.137 164.426C115.434 164.298 115.76 164.234 116.117 164.234C116.477 164.234 116.803 164.298 117.098 164.426C117.395 164.553 117.65 164.738 117.863 164.98C118.079 165.223 118.246 165.516 118.363 165.859C118.483 166.201 118.543 166.589 118.543 167.023ZM117.359 167.293V167.016C117.359 166.714 117.332 166.448 117.277 166.219C117.223 165.99 117.142 165.797 117.035 165.641C116.928 165.484 116.798 165.367 116.645 165.289C116.491 165.208 116.315 165.168 116.117 165.168C115.919 165.168 115.743 165.208 115.59 165.289C115.439 165.367 115.31 165.484 115.203 165.641C115.099 165.797 115.02 165.99 114.965 166.219C114.91 166.448 114.883 166.714 114.883 167.016V167.293C114.883 167.592 114.91 167.858 114.965 168.09C115.02 168.319 115.1 168.513 115.207 168.672C115.314 168.828 115.444 168.947 115.598 169.027C115.751 169.108 115.927 169.148 116.125 169.148C116.323 169.148 116.499 169.108 116.652 169.027C116.806 168.947 116.935 168.828 117.039 168.672C117.143 168.513 117.223 168.319 117.277 168.09C117.332 167.858 117.359 167.592 117.359 167.293ZM121.133 170H119.895L119.902 169.086H121.133C121.44 169.086 121.699 169.017 121.91 168.879C122.121 168.738 122.28 168.534 122.387 168.266C122.496 167.997 122.551 167.673 122.551 167.293V167.016C122.551 166.724 122.52 166.467 122.457 166.246C122.397 166.025 122.307 165.839 122.188 165.688C122.068 165.536 121.921 165.423 121.746 165.348C121.572 165.27 121.371 165.23 121.145 165.23H119.871V164.312H121.145C121.525 164.312 121.872 164.378 122.188 164.508C122.505 164.635 122.78 164.819 123.012 165.059C123.243 165.298 123.422 165.585 123.547 165.918C123.674 166.249 123.738 166.617 123.738 167.023V167.293C123.738 167.697 123.674 168.065 123.547 168.398C123.422 168.732 123.243 169.018 123.012 169.258C122.783 169.495 122.508 169.678 122.188 169.809C121.87 169.936 121.518 170 121.133 170ZM120.559 164.312V170H119.387V164.312H120.559ZM126.816 165.285L125.27 170H124.023L126.137 164.312H126.93L126.816 165.285ZM128.102 170L126.551 165.285L126.426 164.312H127.227L129.352 170H128.102ZM128.031 167.883V168.801H125.027V167.883H128.031ZM132.18 168.254V164.312H133.348V168.254C133.348 168.634 133.264 168.961 133.098 169.234C132.931 169.505 132.703 169.714 132.414 169.859C132.128 170.005 131.805 170.078 131.445 170.078C131.073 170.078 130.743 170.016 130.457 169.891C130.171 169.766 129.945 169.574 129.781 169.316C129.617 169.056 129.535 168.727 129.535 168.328H130.711C130.711 168.536 130.74 168.702 130.797 168.824C130.857 168.947 130.941 169.034 131.051 169.086C131.16 169.138 131.292 169.164 131.445 169.164C131.594 169.164 131.723 169.129 131.832 169.059C131.941 168.988 132.026 168.885 132.086 168.75C132.148 168.615 132.18 168.449 132.18 168.254Z" fill="white"/>
<rect x="31" y="187" width="182" height="28" rx="8" fill="#F7F7F7"/>
<rect x="147" y="41" width="20" height="8" rx="4" fill="#41424D"/>
<path d="M99.5078 315.312H100.5L101.961 319.488L103.422 315.312H104.414L102.359 321H101.562L99.5078 315.312ZM98.9727 315.312H99.9609L100.141 319.383V321H98.9727V315.312ZM103.961 315.312H104.953V321H103.781V319.383L103.961 315.312ZM105.73 318.93V318.848C105.73 318.538 105.775 318.253 105.863 317.992C105.952 317.729 106.081 317.501 106.25 317.309C106.419 317.116 106.628 316.966 106.875 316.859C107.122 316.75 107.406 316.695 107.727 316.695C108.047 316.695 108.332 316.75 108.582 316.859C108.832 316.966 109.042 317.116 109.211 317.309C109.383 317.501 109.513 317.729 109.602 317.992C109.69 318.253 109.734 318.538 109.734 318.848V318.93C109.734 319.237 109.69 319.522 109.602 319.785C109.513 320.046 109.383 320.273 109.211 320.469C109.042 320.661 108.833 320.811 108.586 320.918C108.339 321.025 108.055 321.078 107.734 321.078C107.414 321.078 107.129 321.025 106.879 320.918C106.632 320.811 106.422 320.661 106.25 320.469C106.081 320.273 105.952 320.046 105.863 319.785C105.775 319.522 105.73 319.237 105.73 318.93ZM106.855 318.848V318.93C106.855 319.107 106.871 319.272 106.902 319.426C106.934 319.579 106.983 319.715 107.051 319.832C107.121 319.947 107.212 320.036 107.324 320.102C107.436 320.167 107.573 320.199 107.734 320.199C107.891 320.199 108.025 320.167 108.137 320.102C108.249 320.036 108.339 319.947 108.406 319.832C108.474 319.715 108.523 319.579 108.555 319.426C108.589 319.272 108.605 319.107 108.605 318.93V318.848C108.605 318.676 108.589 318.514 108.555 318.363C108.523 318.21 108.473 318.074 108.402 317.957C108.335 317.837 108.245 317.743 108.133 317.676C108.021 317.608 107.885 317.574 107.727 317.574C107.568 317.574 107.432 317.608 107.32 317.676C107.211 317.743 107.121 317.837 107.051 317.957C106.983 318.074 106.934 318.21 106.902 318.363C106.871 318.514 106.855 318.676 106.855 318.848ZM110.488 316.773H111.617V321.254C111.617 321.566 111.56 321.831 111.445 322.047C111.331 322.263 111.165 322.427 110.949 322.539C110.733 322.651 110.471 322.707 110.164 322.707C110.068 322.707 109.974 322.702 109.883 322.691C109.789 322.681 109.693 322.664 109.594 322.641L109.598 321.777C109.66 321.788 109.721 321.796 109.781 321.801C109.839 321.809 109.897 321.812 109.957 321.812C110.074 321.812 110.172 321.793 110.25 321.754C110.328 321.715 110.387 321.654 110.426 321.57C110.467 321.49 110.488 321.384 110.488 321.254V316.773ZM110.398 315.672C110.398 315.508 110.456 315.372 110.57 315.266C110.688 315.159 110.841 315.105 111.031 315.105C111.224 315.105 111.378 315.159 111.492 315.266C111.607 315.372 111.664 315.508 111.664 315.672C111.664 315.836 111.607 315.971 111.492 316.078C111.378 316.185 111.224 316.238 111.031 316.238C110.841 316.238 110.688 316.185 110.57 316.078C110.456 315.971 110.398 315.836 110.398 315.672ZM113.699 316.773V321H112.57V316.773H113.699ZM112.5 315.672C112.5 315.508 112.557 315.372 112.672 315.266C112.786 315.159 112.94 315.105 113.133 315.105C113.323 315.105 113.475 315.159 113.59 315.266C113.707 315.372 113.766 315.508 113.766 315.672C113.766 315.836 113.707 315.971 113.59 316.078C113.475 316.185 113.323 316.238 113.133 316.238C112.94 316.238 112.786 316.185 112.672 316.078C112.557 315.971 112.5 315.836 112.5 315.672ZM116.621 315H117.746V320.031L117.633 321H116.621V315ZM120.422 318.844V318.926C120.422 319.241 120.388 319.53 120.32 319.793C120.255 320.056 120.154 320.284 120.016 320.477C119.878 320.667 119.706 320.815 119.5 320.922C119.297 321.026 119.057 321.078 118.781 321.078C118.523 321.078 118.299 321.026 118.109 320.922C117.922 320.818 117.764 320.671 117.637 320.48C117.509 320.29 117.406 320.068 117.328 319.812C117.25 319.557 117.191 319.279 117.152 318.977V318.797C117.191 318.495 117.25 318.216 117.328 317.961C117.406 317.706 117.509 317.483 117.637 317.293C117.764 317.103 117.922 316.956 118.109 316.852C118.297 316.747 118.518 316.695 118.773 316.695C119.052 316.695 119.294 316.749 119.5 316.855C119.708 316.96 119.88 317.108 120.016 317.301C120.154 317.491 120.255 317.717 120.32 317.98C120.388 318.241 120.422 318.529 120.422 318.844ZM119.297 318.926V318.844C119.297 318.672 119.284 318.51 119.258 318.359C119.234 318.206 119.193 318.072 119.133 317.957C119.073 317.84 118.991 317.747 118.887 317.68C118.785 317.612 118.654 317.578 118.492 317.578C118.339 317.578 118.208 317.604 118.102 317.656C117.995 317.708 117.906 317.781 117.836 317.875C117.768 317.969 117.717 318.081 117.684 318.211C117.65 318.339 117.629 318.479 117.621 318.633V319.145C117.629 319.35 117.663 319.533 117.723 319.691C117.785 319.848 117.879 319.971 118.004 320.062C118.132 320.151 118.297 320.195 118.5 320.195C118.659 320.195 118.79 320.164 118.895 320.102C118.999 320.039 119.079 319.951 119.137 319.836C119.197 319.721 119.238 319.587 119.262 319.434C119.285 319.277 119.297 319.108 119.297 318.926ZM122.246 317.695V321H121.121V316.773H122.18L122.246 317.695ZM123.52 316.746L123.5 317.789C123.445 317.781 123.379 317.775 123.301 317.77C123.225 317.762 123.156 317.758 123.094 317.758C122.935 317.758 122.797 317.779 122.68 317.82C122.565 317.859 122.469 317.918 122.391 317.996C122.315 318.074 122.258 318.169 122.219 318.281C122.182 318.393 122.161 318.521 122.156 318.664L121.93 318.594C121.93 318.32 121.957 318.069 122.012 317.84C122.066 317.608 122.146 317.406 122.25 317.234C122.357 317.062 122.487 316.93 122.641 316.836C122.794 316.742 122.97 316.695 123.168 316.695C123.23 316.695 123.294 316.701 123.359 316.711C123.424 316.719 123.478 316.73 123.52 316.746ZM123.754 318.93V318.848C123.754 318.538 123.798 318.253 123.887 317.992C123.975 317.729 124.104 317.501 124.273 317.309C124.443 317.116 124.651 316.966 124.898 316.859C125.146 316.75 125.43 316.695 125.75 316.695C126.07 316.695 126.355 316.75 126.605 316.859C126.855 316.966 127.065 317.116 127.234 317.309C127.406 317.501 127.536 317.729 127.625 317.992C127.714 318.253 127.758 318.538 127.758 318.848V318.93C127.758 319.237 127.714 319.522 127.625 319.785C127.536 320.046 127.406 320.273 127.234 320.469C127.065 320.661 126.857 320.811 126.609 320.918C126.362 321.025 126.078 321.078 125.758 321.078C125.438 321.078 125.152 321.025 124.902 320.918C124.655 320.811 124.445 320.661 124.273 320.469C124.104 320.273 123.975 320.046 123.887 319.785C123.798 319.522 123.754 319.237 123.754 318.93ZM124.879 318.848V318.93C124.879 319.107 124.895 319.272 124.926 319.426C124.957 319.579 125.007 319.715 125.074 319.832C125.145 319.947 125.236 320.036 125.348 320.102C125.46 320.167 125.596 320.199 125.758 320.199C125.914 320.199 126.048 320.167 126.16 320.102C126.272 320.036 126.362 319.947 126.43 319.832C126.497 319.715 126.547 319.579 126.578 319.426C126.612 319.272 126.629 319.107 126.629 318.93V318.848C126.629 318.676 126.612 318.514 126.578 318.363C126.547 318.21 126.496 318.074 126.426 317.957C126.358 317.837 126.268 317.743 126.156 317.676C126.044 317.608 125.909 317.574 125.75 317.574C125.591 317.574 125.456 317.608 125.344 317.676C125.234 317.743 125.145 317.837 125.074 317.957C125.007 318.074 124.957 318.21 124.926 318.363C124.895 318.514 124.879 318.676 124.879 318.848ZM128.512 316.773H129.641V321.254C129.641 321.566 129.583 321.831 129.469 322.047C129.354 322.263 129.189 322.427 128.973 322.539C128.757 322.651 128.495 322.707 128.188 322.707C128.091 322.707 127.997 322.702 127.906 322.691C127.812 322.681 127.716 322.664 127.617 322.641L127.621 321.777C127.684 321.788 127.745 321.796 127.805 321.801C127.862 321.809 127.921 321.812 127.98 321.812C128.098 321.812 128.195 321.793 128.273 321.754C128.352 321.715 128.41 321.654 128.449 321.57C128.491 321.49 128.512 321.384 128.512 321.254V316.773ZM128.422 315.672C128.422 315.508 128.479 315.372 128.594 315.266C128.711 315.159 128.865 315.105 129.055 315.105C129.247 315.105 129.401 315.159 129.516 315.266C129.63 315.372 129.688 315.508 129.688 315.672C129.688 315.836 129.63 315.971 129.516 316.078C129.401 316.185 129.247 316.238 129.055 316.238C128.865 316.238 128.711 316.185 128.594 316.078C128.479 315.971 128.422 315.836 128.422 315.672ZM132.48 321.078C132.152 321.078 131.858 321.026 131.598 320.922C131.337 320.815 131.116 320.668 130.934 320.48C130.754 320.293 130.616 320.076 130.52 319.828C130.423 319.578 130.375 319.312 130.375 319.031V318.875C130.375 318.555 130.421 318.262 130.512 317.996C130.603 317.73 130.733 317.5 130.902 317.305C131.074 317.109 131.283 316.96 131.527 316.855C131.772 316.749 132.048 316.695 132.355 316.695C132.655 316.695 132.921 316.745 133.152 316.844C133.384 316.943 133.578 317.083 133.734 317.266C133.893 317.448 134.013 317.667 134.094 317.922C134.174 318.174 134.215 318.456 134.215 318.766V319.234H130.855V318.484H133.109V318.398C133.109 318.242 133.081 318.103 133.023 317.98C132.969 317.855 132.885 317.757 132.773 317.684C132.661 317.611 132.518 317.574 132.344 317.574C132.195 317.574 132.068 317.607 131.961 317.672C131.854 317.737 131.767 317.828 131.699 317.945C131.634 318.062 131.585 318.201 131.551 318.359C131.52 318.516 131.504 318.688 131.504 318.875V319.031C131.504 319.201 131.527 319.357 131.574 319.5C131.624 319.643 131.693 319.767 131.781 319.871C131.872 319.975 131.982 320.056 132.109 320.113C132.24 320.171 132.387 320.199 132.551 320.199C132.754 320.199 132.943 320.16 133.117 320.082C133.294 320.001 133.447 319.88 133.574 319.719L134.121 320.312C134.033 320.44 133.911 320.562 133.758 320.68C133.607 320.797 133.424 320.893 133.211 320.969C132.997 321.042 132.754 321.078 132.48 321.078ZM136.238 320.18L137.176 316.773H138.352L136.926 321H136.215L136.238 320.18ZM135.594 316.773L136.535 320.184L136.555 321H135.84L134.414 316.773H135.594ZM140.043 316.773V321H138.914V316.773H140.043ZM138.844 315.672C138.844 315.508 138.901 315.372 139.016 315.266C139.13 315.159 139.284 315.105 139.477 315.105C139.667 315.105 139.819 315.159 139.934 315.266C140.051 315.372 140.109 315.508 140.109 315.672C140.109 315.836 140.051 315.971 139.934 316.078C139.819 316.185 139.667 316.238 139.477 316.238C139.284 316.238 139.13 316.185 139.016 316.078C138.901 315.971 138.844 315.836 138.844 315.672Z" fill="#AA1111"/>
<path d="M118.548 290.957C118.846 290.032 120.154 290.032 120.452 290.957L122.228 296.474C122.361 296.887 122.745 297.167 123.179 297.167H128.945C129.912 297.167 130.316 298.402 129.537 298.974L124.856 302.406C124.509 302.661 124.364 303.109 124.496 303.519L126.28 309.062C126.577 309.985 125.518 310.748 124.736 310.175L120.091 306.768C119.739 306.51 119.261 306.51 118.909 306.768L114.264 310.175C113.482 310.748 112.423 309.985 112.72 309.062L114.504 303.519C114.636 303.109 114.491 302.661 114.144 302.406L109.463 298.974C108.684 298.402 109.088 297.167 110.055 297.167H115.821C116.255 297.167 116.639 296.887 116.772 296.474L118.548 290.957Z" fill="#AA1111" stroke="#AA1111" stroke-width="2"/>
<rect x="42" y="293" width="25" height="25" rx="12.5" fill="#53545D"/>
<rect x="172" y="293" width="25" height="25" rx="12.5" fill="#53545D"/>
<rect x="84" y="130" width="72" height="8" rx="4" fill="#41424D"/>
<path d="M85.0469 198.312H86.2148V202.07C86.2148 202.508 86.1211 202.876 85.9336 203.176C85.7487 203.475 85.4922 203.701 85.1641 203.852C84.8385 204.003 84.4635 204.078 84.0391 204.078C83.6146 204.078 83.237 204.003 82.9062 203.852C82.5781 203.701 82.3203 203.475 82.1328 203.176C81.9479 202.876 81.8555 202.508 81.8555 202.07V198.312H83.0273V202.07C83.0273 202.326 83.0677 202.534 83.1484 202.695C83.2292 202.857 83.3451 202.975 83.4961 203.051C83.6497 203.126 83.8307 203.164 84.0391 203.164C84.2526 203.164 84.4336 203.126 84.582 203.051C84.7331 202.975 84.8477 202.857 84.9258 202.695C85.0065 202.534 85.0469 202.326 85.0469 202.07V198.312ZM89.2305 202.812L90.5703 198.312H91.875L89.8945 204H89.0352L89.2305 202.812ZM87.9961 198.312L89.332 202.812L89.5352 204H88.668L86.6992 198.312H87.9961ZM96.2227 203.086V204H93.1953V203.086H96.2227ZM93.5781 198.312V204H92.4062V198.312H93.5781ZM95.8281 200.629V201.52H93.1953V200.629H95.8281ZM96.2188 198.312V199.23H93.1953V198.312H96.2188ZM101.02 203.086V204H96.9883V203.086H101.02ZM100.961 198.965L97.5078 204H96.6836V203.328L100.164 198.312H100.961V198.965ZM100.559 198.312V199.23H96.6875V198.312H100.559ZM103.012 198.312V204H101.844V198.312H103.012ZM107.348 198.312V204H106.18V198.312H107.348ZM112.559 203.086V204H108.527V203.086H112.559ZM112.5 198.965L109.047 204H108.223V203.328L111.703 198.312H112.5V198.965ZM112.098 198.312V199.23H108.227V198.312H112.098ZM116.469 198.312V204H115.297V198.312H116.469ZM119.875 198.312L117.621 201.121L116.32 202.52L116.109 201.41L116.988 200.207L118.438 198.312H119.875ZM118.543 204L116.867 201.371L117.734 200.645L119.93 204H118.543ZM124.93 201.023V201.293C124.93 201.725 124.871 202.113 124.754 202.457C124.637 202.801 124.471 203.094 124.258 203.336C124.044 203.576 123.789 203.759 123.492 203.887C123.198 204.014 122.871 204.078 122.512 204.078C122.155 204.078 121.828 204.014 121.531 203.887C121.237 203.759 120.982 203.576 120.766 203.336C120.549 203.094 120.382 202.801 120.262 202.457C120.145 202.113 120.086 201.725 120.086 201.293V201.023C120.086 200.589 120.145 200.201 120.262 199.859C120.379 199.516 120.544 199.223 120.758 198.98C120.974 198.738 121.229 198.553 121.523 198.426C121.82 198.298 122.147 198.234 122.504 198.234C122.863 198.234 123.19 198.298 123.484 198.426C123.781 198.553 124.036 198.738 124.25 198.98C124.466 199.223 124.633 199.516 124.75 199.859C124.87 200.201 124.93 200.589 124.93 201.023ZM123.746 201.293V201.016C123.746 200.714 123.719 200.448 123.664 200.219C123.609 199.99 123.529 199.797 123.422 199.641C123.315 199.484 123.185 199.367 123.031 199.289C122.878 199.208 122.702 199.168 122.504 199.168C122.306 199.168 122.13 199.208 121.977 199.289C121.826 199.367 121.697 199.484 121.59 199.641C121.486 199.797 121.406 199.99 121.352 200.219C121.297 200.448 121.27 200.714 121.27 201.016V201.293C121.27 201.592 121.297 201.858 121.352 202.09C121.406 202.319 121.487 202.513 121.594 202.672C121.701 202.828 121.831 202.947 121.984 203.027C122.138 203.108 122.314 203.148 122.512 203.148C122.71 203.148 122.885 203.108 123.039 203.027C123.193 202.947 123.322 202.828 123.426 202.672C123.53 202.513 123.609 202.319 123.664 202.09C123.719 201.858 123.746 201.592 123.746 201.293ZM130.402 198.312V204H129.23L126.945 200.188V204H125.773V198.312H126.945L129.234 202.129V198.312H130.402ZM133.848 198.312V204H132.68V198.312H133.848ZM135.598 198.312V199.23H130.957V198.312H135.598ZM138.156 199.285L136.609 204H135.363L137.477 198.312H138.27L138.156 199.285ZM139.441 204L137.891 199.285L137.766 198.312H138.566L140.691 204H139.441ZM139.371 201.883V202.801H136.367V201.883H139.371ZM142.391 198.312V204H141.219V198.312H142.391ZM145.797 198.312L143.543 201.121L142.242 202.52L142.031 201.41L142.91 200.207L144.359 198.312H145.797ZM144.465 204L142.789 201.371L143.656 200.645L145.852 204H144.465ZM148.617 199.285L147.07 204H145.824L147.938 198.312H148.73L148.617 199.285ZM149.902 204L148.352 199.285L148.227 198.312H149.027L151.152 204H149.902ZM149.832 201.883V202.801H146.828V201.883H149.832ZM153.738 198.312V204H152.57V198.312H153.738ZM155.488 198.312V199.23H150.848V198.312H155.488ZM158.047 199.285L156.5 204H155.254L157.367 198.312H158.16L158.047 199.285ZM159.332 204L157.781 199.285L157.656 198.312H158.457L160.582 204H159.332ZM159.262 201.883V202.801H156.258V201.883H159.262Z" fill="#53545D"/>
</svg>
