<svg xmlns="http://www.w3.org/2000/svg" width="24" height="24" viewBox="0 0 24 24" fill="none">
  <rect x="10" y="5" width="6" height="15" fill="#D9D9D9"/>
  <path fill-rule="evenodd" clip-rule="evenodd" d="M24 12C24 18.6274 18.6274 24 12 24C5.37258 24 0 18.6274 0 12C0 5.37258 5.37258 0 12 0C18.6274 0 24 5.37258 24 12ZM12 18.9C12.497 18.9 12.9 18.497 12.9 18V10.8C12.9 10.303 12.497 9.9 12 9.9C11.503 9.9 11.1 10.303 11.1 10.8V18C11.1 18.497 11.503 18.9 12 18.9ZM12 6C12.6628 6 13.2 6.53726 13.2 7.2C13.2 7.86274 12.6628 8.4 12 8.4C11.3372 8.4 10.8 7.86274 10.8 7.2C10.8 6.53726 11.3372 6 12 6Z" fill="#AA1111"/>
</svg>