<svg xmlns="http://www.w3.org/2000/svg" width="24" height="24" viewBox="0 0 24 24" fill="none">
  <path d="M24 12C24 18.6274 18.6274 24 12 24C5.37258 24 0 18.6274 0 12C0 5.37258 5.37258 0 12 0C18.6274 0 24 5.37258 24 12Z" fill="#AA1111"/>
  <path d="M6 8.54825C6.31633 8.2157 6.81927 8 7.38384 8H16.6162C17.1807 8 17.6837 8.2157 18 8.54824L12 12L6 8.54825Z" fill="white"/>
  <path d="M6 10V14.7808C6 15.4523 6.73512 16 7.63636 16H16.3636C17.2649 16 18 15.4523 18 14.7808V10L12.6416 12.9036C12.2591 13.1108 11.7409 13.1108 11.3584 12.9036L6 10Z" fill="white"/>
</svg>