<svg xmlns="http://www.w3.org/2000/svg" width="24" height="24" viewBox="0 0 24 24" fill="none">
  <circle cx="12" cy="12" r="12" fill="#AA1111"/>
  <path d="M15.3181 7.68466C14.4205 6.78184 13.543 6.76178 12.6203 7.68466L12.0537 8.24641C12.0036 8.29657 11.9885 8.36678 12.0086 8.43199C12.3596 9.66082 13.3424 10.6439 14.5709 10.995C14.586 11 14.611 11 14.6261 11C14.6762 11 14.7264 10.9799 14.7615 10.9448L15.3181 10.3831C15.7744 9.92665 16 9.49029 16 9.0439C16 8.59249 15.7744 8.1461 15.3181 7.68466Z" fill="white"/>
  <path d="M13.6085 11.5464C13.473 11.4812 13.3425 11.416 13.222 11.3408C13.1216 11.2807 13.0212 11.2155 12.9258 11.1454C12.8455 11.0952 12.7552 11.0201 12.6648 10.9449C12.6548 10.9399 12.6247 10.9148 12.5845 10.8747C12.4289 10.7494 12.2633 10.579 12.1077 10.3935C12.0976 10.3835 12.0675 10.3534 12.0424 10.3083C11.9922 10.2531 11.9169 10.1579 11.8517 10.0526C11.7965 9.98246 11.7312 9.88221 11.671 9.77695C11.5957 9.65163 11.5304 9.52632 11.4702 9.39599C11.405 9.25564 11.3548 9.12531 11.3096 9L8.60915 11.6967C8.43347 11.8722 8.26281 12.203 8.22767 12.4486L8.01183 13.9424C7.96666 14.2581 8.05199 14.5539 8.24775 14.7494C8.41339 14.9148 8.63926 15 8.89023 15C8.94545 15 9.00066 14.995 9.05588 14.99L10.5466 14.7794C10.7926 14.7444 11.1239 14.5789 11.2995 14.3985L14 11.7017C13.8745 11.6616 13.749 11.6065 13.6085 11.5464Z" fill="white"/>
  <path d="M7 16.5C7 16.2239 7.22386 16 7.5 16H16.5C16.7761 16 17 16.2239 17 16.5C17 16.7761 16.7761 17 16.5 17H7.5C7.22386 17 7 16.7761 7 16.5Z" fill="white"/>
</svg>