<svg width="24" height="24" viewBox="0 0 24 24" fill="none" xmlns="http://www.w3.org/2000/svg">
<path d="M12 24C18.6274 24 24 18.6274 24 12C24 5.37258 18.6274 0 12 0C5.37258 0 0 5.37258 0 12C0 18.6274 5.37258 24 12 24Z" fill="#3B5998"/>
<path fill-rule="evenodd" clip-rule="evenodd" d="M15.1659 7.93285C14.7613 7.86083 14.2148 7.80706 13.8712 7.80706C12.9406 7.80706 12.8802 8.16704 12.8802 8.74308V9.76844H15.2064L15.0036 11.8924H12.8802V18.3529H9.96765V11.8924H8.4707V9.76844H9.96765V8.45465C9.96765 6.65504 10.9182 5.64706 13.3048 5.64706C14.134 5.64706 14.7408 5.75506 15.5295 5.89904L15.1659 7.93285Z" fill="white"/>
</svg>
