<svg xmlns="http://www.w3.org/2000/svg" width="24" height="24" viewBox="0 0 24 24" fill="none">
  <path d="M24 12C24 18.6274 18.6274 24 12 24C5.37258 24 0 18.6274 0 12C0 5.37258 5.37258 0 12 0C18.6274 0 24 5.37258 24 12Z" fill="#AA1111"/>
  <path d="M12.3667 17.9532C12.1667 18.0156 11.8222 18.0156 11.6222 17.9532C9.88888 17.4014 6 15.0796 6 11.1442C6 9.40551 7.48889 8 9.33334 8C10.4222 8 11.3889 8.48932 12 9.25976C12.6 8.49973 13.5778 8 14.6667 8C16.5111 8 18 9.40551 18 11.1442C18 15.0796 14.1111 17.4014 12.3667 17.9532Z" fill="white"/>
</svg>