<svg xmlns="http://www.w3.org/2000/svg" width="22" height="22" viewBox="0 0 22 22" fill="none">
  <path d="M10.3411 1.57709L1.67044 9.17149C1.09061 9.67935 1.4498 10.6346 2.22058 10.6346C2.68172 10.6346 3.05556 11.0084 3.05556 11.4696V20C3.05556 20.5523 3.50327 21 4.05556 21H7.55556C8.10784 21 8.55556 20.5523 8.55556 20V15.0169C8.55556 14.4647 9.00327 14.0169 9.55556 14.0169H12.4444C12.9967 14.0169 13.4444 14.4647 13.4444 15.0169V20C13.4444 20.5523 13.8922 21 14.4444 21H17.9444C18.4967 21 18.9444 20.5523 18.9444 20V11.4696C18.9444 11.0084 19.3183 10.6346 19.7794 10.6346C20.5502 10.6346 20.9094 9.67935 20.3296 9.1715L11.6589 1.57709C11.2817 1.24676 10.7183 1.24676 10.3411 1.57709Z" stroke="currentColor" stroke-width="2"/>
</svg>