<svg width="24" height="24" viewBox="0 0 24 24" fill="none" xmlns="http://www.w3.org/2000/svg">
<g clip-path="url(#clip0_436_941)">
<path d="M6.08577 23.9151C4.65848 23.8502 3.88314 23.6127 3.36743 23.4115C2.6841 23.1455 2.19693 22.8288 1.68407 22.3166C1.17122 21.8045 0.853806 21.3173 0.589176 20.634C0.388029 20.1183 0.150504 19.3429 0.0855946 17.9157C0.0142658 16.3728 0 15.9099 0 12.0011C0 8.09225 0.0156923 7.63004 0.0848813 6.08577C0.14979 4.65848 0.388742 3.88457 0.588463 3.36743C0.854519 2.6841 1.17193 2.19693 1.68336 1.68336C2.1955 1.17122 2.68268 0.853092 3.36672 0.588463C3.88243 0.387315 4.65777 0.14979 6.08506 0.0848813C7.62861 0.0142658 8.09225 0 11.9996 0C15.9085 0 16.3707 0.0156923 17.9149 0.0848813C19.3422 0.14979 20.1161 0.388742 20.6333 0.588463C21.3166 0.853092 21.8038 1.17122 22.3166 1.68336C22.8295 2.1955 23.1455 2.68339 23.4115 3.36672C23.6127 3.88243 23.8502 4.65777 23.9151 6.08506C23.9857 7.62933 24 8.09154 24 12.0004C24 15.9077 23.9857 16.3714 23.9151 17.9157C23.8502 19.3429 23.6113 20.1183 23.4115 20.634C23.1455 21.3173 22.8288 21.8045 22.3166 22.3166C21.8045 22.8288 21.3166 23.1455 20.6333 23.4115C20.1176 23.6127 19.3422 23.8502 17.9149 23.9151C16.3721 23.9857 15.9085 24 11.9996 24C8.09225 24 7.62862 23.9864 6.08577 23.9151Z" fill="url(#paint0_radial_436_941)"/>
<path d="M6.08577 23.9151C4.65848 23.8502 3.88314 23.6127 3.36743 23.4115C2.6841 23.1455 2.19693 22.8288 1.68407 22.3166C1.17122 21.8045 0.853806 21.3173 0.589176 20.634C0.388029 20.1183 0.150504 19.3429 0.0855946 17.9157C0.0142658 16.3728 0 15.9099 0 12.0011C0 8.09225 0.0156923 7.63004 0.0848813 6.08577C0.14979 4.65848 0.388742 3.88457 0.588463 3.36743C0.854519 2.6841 1.17193 2.19693 1.68336 1.68336C2.1955 1.17122 2.68268 0.853092 3.36672 0.588463C3.88243 0.387315 4.65777 0.14979 6.08506 0.0848813C7.62861 0.0142658 8.09225 0 11.9996 0C15.9085 0 16.3707 0.0156923 17.9149 0.0848813C19.3422 0.14979 20.1161 0.388742 20.6333 0.588463C21.3166 0.853092 21.8038 1.17122 22.3166 1.68336C22.8295 2.1955 23.1455 2.68339 23.4115 3.36672C23.6127 3.88243 23.8502 4.65777 23.9151 6.08506C23.9857 7.62933 24 8.09154 24 12.0004C24 15.9077 23.9857 16.3714 23.9151 17.9157C23.8502 19.3429 23.6113 20.1183 23.4115 20.634C23.1455 21.3173 22.8288 21.8045 22.3166 22.3166C21.8045 22.8288 21.3166 23.1455 20.6333 23.4115C20.1176 23.6127 19.3422 23.8502 17.9149 23.9151C16.3721 23.9857 15.9085 24 11.9996 24C8.09225 24 7.62862 23.9864 6.08577 23.9151Z" fill="url(#paint1_radial_436_941)"/>
<path d="M9.77847 12C9.77847 10.7727 10.7731 9.7776 12.0004 9.7776C13.2277 9.7776 14.2229 10.7727 14.2229 12C14.2229 13.2273 13.2277 14.2224 12.0004 14.2224C10.7731 14.2224 9.77847 13.2273 9.77847 12ZM8.57704 12C8.57704 13.8907 10.1097 15.4233 12.0004 15.4233C13.8912 15.4233 15.4238 13.8907 15.4238 12C15.4238 10.1093 13.8912 8.57675 12.0004 8.57675C10.1097 8.57675 8.57709 10.1092 8.57709 12M14.7594 8.44102C14.7593 8.59924 14.8062 8.75393 14.894 8.88553C14.9819 9.01712 15.1068 9.11971 15.2529 9.18032C15.3991 9.24093 15.56 9.25683 15.7152 9.22603C15.8704 9.19522 16.0129 9.11908 16.1249 9.00725C16.2368 8.89541 16.3131 8.75289 16.344 8.59772C16.3749 8.44255 16.3591 8.28169 16.2987 8.13548C16.2382 7.98928 16.1357 7.8643 16.0041 7.77634C15.8726 7.68838 15.7179 7.6414 15.5597 7.64134H15.5594C15.3473 7.64143 15.1439 7.72571 14.9939 7.87565C14.8439 8.02558 14.7595 8.22893 14.7594 8.44102ZM9.30699 17.4266C8.65699 17.397 8.30369 17.2887 8.06891 17.1972C7.75765 17.0761 7.53556 16.9317 7.30205 16.6986C7.06855 16.4654 6.92401 16.2435 6.80337 15.9323C6.71184 15.6976 6.60357 15.3442 6.57403 14.6942C6.5417 13.9915 6.53525 13.7804 6.53525 12.0001C6.53525 10.2198 6.54224 10.0093 6.57403 9.30598C6.60363 8.656 6.7127 8.30331 6.80337 8.06795C6.92455 7.7567 7.06887 7.53462 7.30205 7.30112C7.53524 7.06763 7.75711 6.9231 8.06891 6.80246C8.30359 6.71094 8.65699 6.60267 9.30699 6.57312C10.0097 6.5408 10.2208 6.53435 12.0004 6.53435C13.78 6.53435 13.9913 6.54123 14.6947 6.57323C15.3447 6.60283 15.6974 6.7119 15.9327 6.80256C16.244 6.9232 16.4661 7.06806 16.6996 7.30123C16.9331 7.5344 17.0771 7.7568 17.1983 8.06806C17.2898 8.30272 17.3981 8.65611 17.4276 9.30608C17.46 10.0094 17.4664 10.2199 17.4664 12.0002C17.4664 13.7805 17.46 13.991 17.4276 14.6943C17.398 15.3443 17.2892 15.6976 17.1983 15.9324C17.0771 16.2436 16.9328 16.4657 16.6996 16.6987C16.4664 16.9316 16.244 17.0762 15.9327 17.1973C15.6981 17.2889 15.3447 17.3971 14.6947 17.4267C13.9919 17.459 13.7808 17.4654 12.0004 17.4654C10.22 17.4654 10.0095 17.459 9.30699 17.4267M9.25179 5.37371C8.54205 5.40603 8.05707 5.51856 7.63353 5.68336C7.19517 5.85355 6.82358 6.08187 6.45253 6.45232C6.08147 6.82278 5.85373 7.1944 5.68354 7.63328C5.51873 8.05707 5.40619 8.54176 5.37387 9.25147C5.34102 9.9623 5.3335 10.1895 5.3335 12C5.3335 13.8105 5.34102 14.0377 5.37387 14.7485C5.40619 15.4583 5.51873 15.9429 5.68354 16.3667C5.85373 16.8051 6.08153 17.1774 6.45253 17.5477C6.82353 17.918 7.19464 18.146 7.63353 18.3166C8.05787 18.4814 8.54205 18.594 9.25179 18.6263C9.96301 18.6586 10.1899 18.6667 12.0004 18.6667C13.811 18.6667 14.0382 18.6591 14.7491 18.6263C15.4589 18.594 15.9435 18.4814 16.3673 18.3166C16.8057 18.146 17.1773 17.9181 17.5483 17.5477C17.9194 17.1772 18.1466 16.8051 18.3173 16.3667C18.4821 15.9429 18.5952 15.4582 18.627 14.7485C18.6593 14.0372 18.6668 13.8105 18.6668 12C18.6668 10.1895 18.6593 9.9623 18.627 9.25147C18.5947 8.54171 18.4821 8.0568 18.3173 7.63328C18.1466 7.19494 17.9188 6.82336 17.5483 6.45232C17.1779 6.08128 16.8057 5.85355 16.3679 5.68336C15.9435 5.51856 15.4588 5.4055 14.7496 5.37371C14.0386 5.34123 13.8115 5.33334 12.0012 5.33334C10.191 5.33334 9.96328 5.34086 9.25205 5.37371" fill="white"/>
</g>
<defs>
<radialGradient id="paint0_radial_436_941" cx="0" cy="0" r="1" gradientUnits="userSpaceOnUse" gradientTransform="translate(1.55326 23.4742) scale(30.4711)">
<stop offset="0.09" stop-color="#FA8F21"/>
<stop offset="0.78" stop-color="#D82D7E"/>
</radialGradient>
<radialGradient id="paint1_radial_436_941" cx="0" cy="0" r="1" gradientUnits="userSpaceOnUse" gradientTransform="translate(16.624 22.7036) scale(26.8148)">
<stop offset="0.64" stop-color="#8C3AAA" stop-opacity="0"/>
<stop offset="1" stop-color="#8C3AAA"/>
</radialGradient>
<clipPath id="clip0_436_941">
<rect width="24" height="24" rx="12" fill="white"/>
</clipPath>
</defs>
</svg>
