<svg width="24" height="24" viewBox="0 0 24 24" fill="none" xmlns="http://www.w3.org/2000/svg">
<path d="M24 12C24 18.6274 18.6274 24 12 24C5.37258 24 0 18.6274 0 12C0 5.37258 5.37258 0 12 0C18.6274 0 24 5.37258 24 12Z" fill="#AA1111"/>
<path d="M10.7735 7.82261L11.1791 8.54944C11.5452 9.20537 11.3982 10.0658 10.8217 10.6424C10.8217 10.6424 10.1224 11.3418 11.3903 12.6097C12.6578 13.8772 13.3576 13.1783 13.3576 13.1783C13.9342 12.6018 14.7946 12.4548 15.4506 12.8209L16.1774 13.2265C17.1679 13.7793 17.2848 15.1683 16.4142 16.0389C15.8911 16.562 15.2502 16.9691 14.5418 16.9959C13.3492 17.0411 11.3239 16.7393 9.29231 14.7077C7.26071 12.6761 6.95888 10.6508 7.0041 9.45819C7.03095 8.74975 7.438 8.1089 7.96113 7.58577C8.83173 6.71517 10.2207 6.83215 10.7735 7.82261Z" fill="white"/>
</svg>
