<svg xmlns="http://www.w3.org/2000/svg" width="23" height="23" viewBox="0 0 23 23" fill="none">
  <path d="M10.5481 1.95719C10.8458 1.03241 12.1542 1.03241 12.4519 1.9572L14.2276 7.47359C14.3606 7.88694 14.7453 8.16718 15.1795 8.16718H20.9455C21.9119 8.16718 22.3162 9.40203 21.5369 9.97357L16.856 13.4064C16.5088 13.661 16.3636 14.1093 16.4955 14.5192L18.2796 20.0618C18.5767 20.9847 17.5182 21.748 16.7363 21.1746L12.0914 17.7681C11.7394 17.5099 11.2606 17.5099 10.9086 17.7681L6.26366 21.1746C5.48178 21.748 4.42327 20.9847 4.72037 20.0618L6.50449 14.5192C6.63642 14.1093 6.49118 13.661 6.14397 13.4064L1.46312 9.97357C0.68378 9.40203 1.08805 8.16718 2.0545 8.16718H7.82051C8.25475 8.16718 8.63936 7.88694 8.77241 7.47359L10.5481 1.95719Z" stroke="currentColor" stroke-width="2"/>
</svg>