<svg xmlns="http://www.w3.org/2000/svg" width="24" height="24" viewBox="0 0 24 24" fill="none">
  <path d="M24 12C24 18.6274 18.6274 24 12 24C5.37258 24 0 18.6274 0 12C0 5.37258 5.37258 0 12 0C18.6274 0 24 5.37258 24 12Z" fill="#AA1111"/>
  <rect x="10.7128" y="6.4074" width="8.9466" height="10.9359" rx="1.5" transform="rotate(13.9987 10.7128 6.4074)" fill="white" stroke="white"/>
  <rect x="5.5" y="4.36212" width="10.9466" height="12.9359" rx="2.5" fill="white" stroke="#AA1111"/>
  <path d="M8.49177 10.6082C8.49216 10.5621 8.514 9.4763 9.81955 9.47551H12.7664L12.2027 10.0393C12.1582 10.0837 12.1307 10.1453 12.1307 10.2132C12.1307 10.3491 12.2408 10.4592 12.3768 10.4592C12.4448 10.4592 12.5062 10.4317 12.5508 10.3871L13.5344 9.40351C13.5368 9.40115 13.5375 9.39781 13.5397 9.39545C13.5592 9.37519 13.5751 9.35158 13.5867 9.32542L13.5873 9.32385V9.32326C13.5973 9.29769 13.603 9.26818 13.603 9.2371C13.603 9.22313 13.6019 9.20956 13.5997 9.19618L13.5999 9.19756C13.5983 9.18596 13.5964 9.17592 13.5938 9.16609L13.5942 9.16786C13.584 9.12399 13.5631 9.08603 13.5342 9.05554L13.5344 9.05573L12.5508 8.07219C12.5064 8.02754 12.4448 8 12.3768 8C12.2408 8 12.1307 8.11016 12.1307 8.24608C12.1307 8.31395 12.1582 8.37552 12.2027 8.41997L12.7666 8.98374H9.81936C8.3885 8.98472 8.00374 10.0448 8 10.605C8 10.6054 8 10.606 8 10.6066C8 10.7419 8.10917 10.8517 8.24431 10.8525H8.24589C8.38102 10.8525 8.49079 10.7433 8.49177 10.6082ZM13.7565 11.1481C13.6235 11.1534 13.5165 11.2581 13.508 11.3899V11.3907C13.5061 11.5065 13.4524 12.5239 12.1803 12.5247H9.23336L9.79693 11.9611C9.84158 11.9167 9.86912 11.8551 9.86912 11.787C9.86912 11.6511 9.75897 11.5409 9.62304 11.5409C9.55518 11.5409 9.49361 11.5685 9.44915 11.6129L8.46561 12.5965C8.46325 12.5988 8.46246 12.6022 8.4603 12.6046C8.44063 12.6248 8.4245 12.6486 8.41289 12.6748L8.4123 12.6763V12.6769C8.40483 12.6952 8.39951 12.7163 8.39794 12.7383V12.7391C8.39735 12.7456 8.39715 12.7533 8.39715 12.7607C8.39715 12.7755 8.39814 12.79 8.4003 12.8042L8.4001 12.8026C8.40778 12.8577 8.43138 12.9063 8.466 12.9447L8.46581 12.9445L9.44935 13.928C9.4938 13.9725 9.55537 14 9.62324 14C9.75916 14 9.86932 13.8898 9.86932 13.7539C9.86932 13.6859 9.84178 13.6245 9.79713 13.5798L9.23336 13.0163H12.1804C13.6115 13.0151 13.9965 11.955 14 11.395C14 11.3946 14 11.394 14 11.3936C14 11.2589 13.8914 11.1495 13.7569 11.1481H13.7565Z" fill="#AA1111"/>
</svg>