<?xml version="1.0" encoding="UTF-8" standalone="no" ?>
<!DOCTYPE svg PUBLIC "-//W3C//DTD SVG 1.1//EN" "http://www.w3.org/Graphics/SVG/1.1/DTD/svg11.dtd">
<svg xmlns="http://www.w3.org/2000/svg" xmlns:xlink="http://www.w3.org/1999/xlink" version="1.1" width="1080" height="1080" viewBox="0 0 1080 1080" xml:space="preserve">
<desc>Created with Fabric.js 5.2.4</desc>
<defs>
</defs>
<rect x="0" y="0" width="100%" height="100%" fill="transparent"></rect>
<g transform="matrix(0 0 0 0 0 0)" id="12fb11ea-eaa2-40d7-9afe-fcf92c529673"  >
</g>
<g transform="matrix(1 0 0 1 540 540)" id="0e1f4216-67aa-4a46-8ddb-76e05ed76898"  >
<rect style="stroke: none; stroke-width: 1; stroke-dasharray: none; stroke-linecap: butt; stroke-dashoffset: 0; stroke-linejoin: miter; stroke-miterlimit: 4; fill: rgb(255,255,255); fill-rule: nonzero; opacity: 1; visibility: hidden;" vector-effect="non-scaling-stroke"  x="-540" y="-540" rx="0" ry="0" width="1080" height="1080" />
</g>
<g transform="matrix(44.5 0 0 44.5 539.64 542.15)"  >
<path style="stroke: rgb(0,0,0); stroke-width: 0; stroke-dasharray: none; stroke-linecap: butt; stroke-dashoffset: 0; stroke-linejoin: miter; stroke-miterlimit: 4; fill: rgb(170,17,17); fill-rule: nonzero; opacity: 1;" vector-effect="non-scaling-stroke"  transform=" translate(-12, -12)" d="M 24 12 C 24 18.6274 18.6274 24 12 24 C 5.37258 24 0 18.6274 0 12 C 0 5.37258 5.37258 0 12 0 C 18.6274 0 24 5.37258 24 12 Z" stroke-linecap="round" />
</g>
<g transform="matrix(45.72 0 0 45.72 540 540)"  >
<g style="" vector-effect="non-scaling-stroke"   >
		<g transform="matrix(1 0 0 1 0 0.6)"  >
<path style="stroke: none; stroke-width: 1; stroke-dasharray: none; stroke-linecap: butt; stroke-dashoffset: 0; stroke-linejoin: miter; stroke-miterlimit: 4; fill: rgb(255,255,255); fill-rule: nonzero; opacity: 1;" vector-effect="non-scaling-stroke"  transform=" translate(-7, -7.6)" d="M 9.2149 5.922 C 9.25317 6.29713 9.2751 6.6602 9.2751 7 C 9.2751 7.63606 9.19823 8.35433 9.08063 9.08053 C 8.35443 9.19813 7.63617 9.275 7.0001 9.275 C 6.3669 9.275 5.64885 9.19833 4.9195 9.08033 C 4.80197 8.35413 4.7251 7.636 4.7251 7 C 4.7251 6.66033 4.74702 6.2972 4.78536 5.922 C 5.55082 6.04453 6.31443 6.125 7.0001 6.125 C 7.68583 6.125 8.44943 6.04453 9.2149 5.922 Z" stroke-linecap="round" />
</g>
		<g transform="matrix(1 0 0 1 5.09 -0.13)"  >
<path style="stroke: none; stroke-width: 1; stroke-dasharray: none; stroke-linecap: butt; stroke-dashoffset: 0; stroke-linejoin: miter; stroke-miterlimit: 4; fill: rgb(255,255,255); fill-rule: nonzero; opacity: 1;" vector-effect="non-scaling-stroke"  transform=" translate(-12.09, -6.87)" d="M 10.2502 5.73293 C 10.2975 6.17193 10.3251 6.59933 10.3251 7 C 10.3251 7.5846 10.2665 8.22593 10.1733 8.87687 C 11.4951 8.60107 12.7167 8.24873 13.3712 8.04813 C 13.5827 7.98333 13.6658 7.95753 13.7773 7.91293 C 13.833 7.89067 13.8841 7.868 13.9507 7.8362 C 13.9833 7.562 14.0001 7.28293 14.0001 7 C 14.0001 6.252 13.8827 5.53142 13.6655 4.85564 L 13.6089 4.87344 C 12.9246 5.08163 11.6435 5.44966 10.2502 5.73293 Z" stroke-linecap="round" />
</g>
		<g transform="matrix(1 0 0 1 4.16 -4.5)"  >
<path style="stroke: none; stroke-width: 1; stroke-dasharray: none; stroke-linecap: butt; stroke-dashoffset: 0; stroke-linejoin: miter; stroke-miterlimit: 4; fill: rgb(255,255,255); fill-rule: nonzero; opacity: 1;" vector-effect="non-scaling-stroke"  transform=" translate(-11.16, -2.5)" d="M 13.2679 3.87965 C 12.5799 4.08814 11.3861 4.42693 10.1067 4.69069 C 9.81194 2.89951 9.29541 1.11301 9.04688 0.303986 C 10.8949 0.868179 12.4183 2.17645 13.2679 3.87965 Z" stroke-linecap="round" />
</g>
		<g transform="matrix(1 0 0 1 0 -4.46)"  >
<path style="stroke: none; stroke-width: 1; stroke-dasharray: none; stroke-linecap: butt; stroke-dashoffset: 0; stroke-linejoin: miter; stroke-miterlimit: 4; fill: rgb(255,255,255); fill-rule: nonzero; opacity: 1;" vector-effect="non-scaling-stroke"  transform=" translate(-7, -2.54)" d="M 9.07414 4.88151 C 8.34988 4.99853 7.63387 5.07499 6.99967 5.07499 C 6.36547 5.07499 5.64952 4.99853 4.92529 4.88152 C 5.20281 3.18669 5.69821 1.45536 5.95154 0.628872 C 6.01634 0.417358 6.04214 0.334278 6.08674 0.222772 C 6.10901 0.167065 6.13167 0.115971 6.16347 0.0494114 C 6.43767 0.0167714 6.71674 -0.0000152588 6.99967 -0.0000152588 C 7.29527 -0.0000152588 7.58654 0.0183047 7.87254 0.0538714 C 7.87861 0.0770781 7.88421 0.0978448 7.88974 0.117491 C 7.90614 0.175538 7.93181 0.257118 7.97488 0.394012 L 7.97941 0.408392 C 8.19534 1.09481 8.76761 3.00933 9.07414 4.88151 Z" stroke-linecap="round" />
</g>
		<g transform="matrix(1 0 0 1 -4.16 -4.5)"  >
<path style="stroke: none; stroke-width: 1; stroke-dasharray: none; stroke-linecap: butt; stroke-dashoffset: 0; stroke-linejoin: miter; stroke-miterlimit: 4; fill: rgb(255,255,255); fill-rule: nonzero; opacity: 1;" vector-effect="non-scaling-stroke"  transform=" translate(-2.84, -2.5)" d="M 3.89355 4.69066 C 4.18692 2.90737 4.7001 1.1305 4.94814 0.321197 L 4.95341 0.30397 C 3.10537 0.868157 1.58199 2.17642 0.732422 3.87963 C 1.42031 4.08812 2.61416 4.4269 3.89355 4.69066 Z" stroke-linecap="round" />
</g>
		<g transform="matrix(1 0 0 1 -5.09 -0.13)"  >
<path style="stroke: none; stroke-width: 1; stroke-dasharray: none; stroke-linecap: butt; stroke-dashoffset: 0; stroke-linejoin: miter; stroke-miterlimit: 4; fill: rgb(255,255,255); fill-rule: nonzero; opacity: 1;" vector-effect="non-scaling-stroke"  transform=" translate(-1.91, -6.87)" d="M 0.33456 4.85562 C 0.11732 5.53142 0 6.25199 0 6.99999 C 0 7.29259 0.0179533 7.58099 0.05282 7.86419 L 0.16314 7.90099 L 0.16402 7.90126 L 0.1651 7.90166 L 0.16586 7.90186 C 0.201367 7.91366 1.24203 8.25732 2.61252 8.59832 C 2.99924 8.69452 3.40871 8.78959 3.82671 8.87672 C 3.7335 8.22586 3.675 7.58459 3.675 6.99999 C 3.675 6.59919 3.7025 6.17179 3.74982 5.73292 C 2.35619 5.44956 1.07479 5.0814 0.390647 4.87325 L 0.385887 4.87179 L 0.33456 4.85562 Z" stroke-linecap="round" />
</g>
		<g transform="matrix(1 0 0 1 0 5.09)"  >
<path style="stroke: none; stroke-width: 1; stroke-dasharray: none; stroke-linecap: butt; stroke-dashoffset: 0; stroke-linejoin: miter; stroke-miterlimit: 4; fill: rgb(255,255,255); fill-rule: nonzero; opacity: 1;" vector-effect="non-scaling-stroke"  transform=" translate(-7, -12.09)" d="M 7.00035 10.325 C 7.58495 10.325 8.22628 10.2665 8.87722 10.1733 C 8.60142 11.495 8.24908 12.7167 8.04848 13.3711 C 7.98368 13.5826 7.95788 13.6657 7.91328 13.7772 C 7.89102 13.8329 7.86835 13.884 7.83655 13.9506 C 7.56235 13.9832 7.28328 14 7.00035 14 C 6.71742 14 6.43835 13.9832 6.16415 13.9506 C 6.13235 13.884 6.10968 13.8329 6.08742 13.7772 C 6.04282 13.6657 6.01702 13.5826 5.95222 13.3711 C 5.75162 12.7167 5.39932 11.4951 5.12354 10.1735 C 5.77228 10.2664 6.41375 10.325 7.00035 10.325 Z" stroke-linecap="round" />
</g>
		<g transform="matrix(1 0 0 1 -4.37 4.37)"  >
<path style="stroke: none; stroke-width: 1; stroke-dasharray: none; stroke-linecap: butt; stroke-dashoffset: 0; stroke-linejoin: miter; stroke-miterlimit: 4; fill: rgb(255,255,255); fill-rule: nonzero; opacity: 1;" vector-effect="non-scaling-stroke"  transform=" translate(-2.63, -11.37)" d="M 2.35922 9.61727 C 1.49257 9.4016 0.754453 9.185 0.304199 9.0468 C 0.98194 11.2668 2.73343 13.0183 4.95344 13.696 L 4.94817 13.6788 C 4.73159 12.9721 4.31287 11.5278 4.01483 9.9856 C 3.43522 9.87353 2.8717 9.74473 2.35922 9.61727 Z" stroke-linecap="round" />
</g>
		<g transform="matrix(1 0 0 1 4.37 4.37)"  >
<path style="stroke: none; stroke-width: 1; stroke-dasharray: none; stroke-linecap: butt; stroke-dashoffset: 0; stroke-linejoin: miter; stroke-miterlimit: 4; fill: rgb(255,255,255); fill-rule: nonzero; opacity: 1;" vector-effect="non-scaling-stroke"  transform=" translate(-11.37, -11.37)" d="M 13.6789 9.05207 C 12.9722 9.26867 11.5277 9.6874 9.98548 9.9854 C 9.68748 11.5277 9.26874 12.9721 9.05214 13.6788 L 9.04688 13.696 C 11.2669 13.0183 13.0183 11.2668 13.6961 9.0468 L 13.6789 9.05207 Z" stroke-linecap="round" />
</g>
		<g transform="matrix(1 0 0 1 -6.88 0.89)"  >
<path style="stroke: none; stroke-width: 1; stroke-dasharray: none; stroke-linecap: butt; stroke-dashoffset: 0; stroke-linejoin: miter; stroke-miterlimit: 4; fill: rgb(255,255,255); fill-rule: nonzero; opacity: 1;" vector-effect="non-scaling-stroke"  transform=" translate(-0.12, -7.89)" d="M 0.0732422 7.88199 C 0.0974755 7.88512 0.117229 7.88846 0.123782 7.88992 C 0.129522 7.89132 0.138516 7.89372 0.141776 7.89459 L 0.148982 7.89666 L 0.152862 7.89786 L 0.156942 7.89912 L 0.160362 7.90019 C 0.158442 7.89959 0.119549 7.88986 0.0732422 7.88199 Z" stroke-linecap="round" />
</g>
</g>
</g>
</svg>